<svg xmlns="http://www.w3.org/2000/svg" xmlns:xlink="http://www.w3.org/1999/xlink" width="500" zoomAndPan="magnify" viewBox="0 0 375 374.999991" height="500" preserveAspectRatio="xMidYMid meet" version="1.0"><defs><g/><clipPath id="ce9ace216d"><path d="M 104 120 L 304 120 L 304 296 L 104 296 Z M 104 120 " clip-rule="nonzero"/></clipPath><clipPath id="3b6341cabd"><path d="M 88.996094 57.207031 L 323.703125 95.136719 L 289.71875 305.410156 L 55.015625 267.480469 Z M 88.996094 57.207031 " clip-rule="nonzero"/></clipPath><clipPath id="54dee301d7"><path d="M 88.996094 57.207031 L 323.703125 95.136719 L 289.71875 305.410156 L 55.015625 267.480469 Z M 88.996094 57.207031 " clip-rule="nonzero"/></clipPath><clipPath id="c6df242c59"><path d="M 88.996094 57.207031 L 323.703125 95.136719 L 289.71875 305.410156 L 55.015625 267.480469 Z M 88.996094 57.207031 " clip-rule="nonzero"/></clipPath><clipPath id="96e0dadf6d"><path d="M 274 238 L 296 238 L 296 259 L 274 259 Z M 274 238 " clip-rule="nonzero"/></clipPath><clipPath id="d67669a135"><path d="M 88.996094 57.207031 L 323.703125 95.136719 L 289.71875 305.410156 L 55.015625 267.480469 Z M 88.996094 57.207031 " clip-rule="nonzero"/></clipPath><clipPath id="e1ea8897da"><path d="M 88.996094 57.207031 L 323.703125 95.136719 L 289.71875 305.410156 L 55.015625 267.480469 Z M 88.996094 57.207031 " clip-rule="nonzero"/></clipPath><clipPath id="b78d83568f"><path d="M 88.996094 57.207031 L 323.703125 95.136719 L 289.71875 305.410156 L 55.015625 267.480469 Z M 88.996094 57.207031 " clip-rule="nonzero"/></clipPath><clipPath id="9061d9a44a"><path d="M 107 128 L 300 128 L 300 259 L 107 259 Z M 107 128 " clip-rule="nonzero"/></clipPath><clipPath id="35d14b28b5"><path d="M 88.996094 57.207031 L 323.703125 95.136719 L 289.71875 305.410156 L 55.015625 267.480469 Z M 88.996094 57.207031 " clip-rule="nonzero"/></clipPath><clipPath id="dfe6ec860c"><path d="M 88.996094 57.207031 L 323.703125 95.136719 L 289.71875 305.410156 L 55.015625 267.480469 Z M 88.996094 57.207031 " clip-rule="nonzero"/></clipPath><clipPath id="c6e9189ef6"><path d="M 88.996094 57.207031 L 323.703125 95.136719 L 289.71875 305.410156 L 55.015625 267.480469 Z M 88.996094 57.207031 " clip-rule="nonzero"/></clipPath><clipPath id="a42b691d07"><path d="M 163 102 L 199 102 L 199 137 L 163 137 Z M 163 102 " clip-rule="nonzero"/></clipPath><clipPath id="9fa19d0be0"><path d="M 88.996094 57.207031 L 323.703125 95.136719 L 289.71875 305.410156 L 55.015625 267.480469 Z M 88.996094 57.207031 " clip-rule="nonzero"/></clipPath><clipPath id="5b023912ce"><path d="M 88.996094 57.207031 L 323.703125 95.136719 L 289.71875 305.410156 L 55.015625 267.480469 Z M 88.996094 57.207031 " clip-rule="nonzero"/></clipPath><clipPath id="8f5c3efad3"><path d="M 88.996094 57.207031 L 323.703125 95.136719 L 289.71875 305.410156 L 55.015625 267.480469 Z M 88.996094 57.207031 " clip-rule="nonzero"/></clipPath><clipPath id="10ae2dafc3"><path d="M 156 95 L 205 95 L 205 142 L 156 142 Z M 156 95 " clip-rule="nonzero"/></clipPath><clipPath id="bc30417c03"><path d="M 88.996094 57.207031 L 323.703125 95.136719 L 289.71875 305.410156 L 55.015625 267.480469 Z M 88.996094 57.207031 " clip-rule="nonzero"/></clipPath><clipPath id="22db34c600"><path d="M 88.996094 57.207031 L 323.703125 95.136719 L 289.71875 305.410156 L 55.015625 267.480469 Z M 88.996094 57.207031 " clip-rule="nonzero"/></clipPath><clipPath id="17e47b3480"><path d="M 88.996094 57.207031 L 323.703125 95.136719 L 289.71875 305.410156 L 55.015625 267.480469 Z M 88.996094 57.207031 " clip-rule="nonzero"/></clipPath><clipPath id="17e2214827"><path d="M 128 239 L 157 239 L 157 259 L 128 259 Z M 128 239 " clip-rule="nonzero"/></clipPath><clipPath id="d951f8e9b1"><path d="M 88.996094 57.207031 L 323.703125 95.136719 L 289.71875 305.410156 L 55.015625 267.480469 Z M 88.996094 57.207031 " clip-rule="nonzero"/></clipPath><clipPath id="18597d9d8b"><path d="M 88.996094 57.207031 L 323.703125 95.136719 L 289.71875 305.410156 L 55.015625 267.480469 Z M 88.996094 57.207031 " clip-rule="nonzero"/></clipPath><clipPath id="529603d19b"><path d="M 88.996094 57.207031 L 323.703125 95.136719 L 289.71875 305.410156 L 55.015625 267.480469 Z M 88.996094 57.207031 " clip-rule="nonzero"/></clipPath><clipPath id="dca7e9db60"><path d="M 138 249 L 148 249 L 148 268 L 138 268 Z M 138 249 " clip-rule="nonzero"/></clipPath><clipPath id="c0a1bc5e46"><path d="M 88.996094 57.207031 L 323.703125 95.136719 L 289.71875 305.410156 L 55.015625 267.480469 Z M 88.996094 57.207031 " clip-rule="nonzero"/></clipPath><clipPath id="f757d7e9c6"><path d="M 88.996094 57.207031 L 323.703125 95.136719 L 289.71875 305.410156 L 55.015625 267.480469 Z M 88.996094 57.207031 " clip-rule="nonzero"/></clipPath><clipPath id="c8422aabb2"><path d="M 88.996094 57.207031 L 323.703125 95.136719 L 289.71875 305.410156 L 55.015625 267.480469 Z M 88.996094 57.207031 " clip-rule="nonzero"/></clipPath><clipPath id="142e890826"><path d="M 151 230 L 166 230 L 166 245 L 151 245 Z M 151 230 " clip-rule="nonzero"/></clipPath><clipPath id="6647880c85"><path d="M 88.996094 57.207031 L 323.703125 95.136719 L 289.71875 305.410156 L 55.015625 267.480469 Z M 88.996094 57.207031 " clip-rule="nonzero"/></clipPath><clipPath id="472f6cb83c"><path d="M 88.996094 57.207031 L 323.703125 95.136719 L 289.71875 305.410156 L 55.015625 267.480469 Z M 88.996094 57.207031 " clip-rule="nonzero"/></clipPath><clipPath id="7f8c1ca75f"><path d="M 88.996094 57.207031 L 323.703125 95.136719 L 289.71875 305.410156 L 55.015625 267.480469 Z M 88.996094 57.207031 " clip-rule="nonzero"/></clipPath><clipPath id="6dd2bfa184"><path d="M 147 227 L 170 227 L 170 249 L 147 249 Z M 147 227 " clip-rule="nonzero"/></clipPath><clipPath id="eeb6c09e2b"><path d="M 88.996094 57.207031 L 323.703125 95.136719 L 289.71875 305.410156 L 55.015625 267.480469 Z M 88.996094 57.207031 " clip-rule="nonzero"/></clipPath><clipPath id="23a3b72a24"><path d="M 88.996094 57.207031 L 323.703125 95.136719 L 289.71875 305.410156 L 55.015625 267.480469 Z M 88.996094 57.207031 " clip-rule="nonzero"/></clipPath><clipPath id="69c6047f9f"><path d="M 88.996094 57.207031 L 323.703125 95.136719 L 289.71875 305.410156 L 55.015625 267.480469 Z M 88.996094 57.207031 " clip-rule="nonzero"/></clipPath><clipPath id="3b9ad778ec"><path d="M 138 264 L 152 264 L 152 279 L 138 279 Z M 138 264 " clip-rule="nonzero"/></clipPath><clipPath id="f61e28c581"><path d="M 88.996094 57.207031 L 323.703125 95.136719 L 289.71875 305.410156 L 55.015625 267.480469 Z M 88.996094 57.207031 " clip-rule="nonzero"/></clipPath><clipPath id="2051ddd840"><path d="M 88.996094 57.207031 L 323.703125 95.136719 L 289.71875 305.410156 L 55.015625 267.480469 Z M 88.996094 57.207031 " clip-rule="nonzero"/></clipPath><clipPath id="3e27fb99d3"><path d="M 88.996094 57.207031 L 323.703125 95.136719 L 289.71875 305.410156 L 55.015625 267.480469 Z M 88.996094 57.207031 " clip-rule="nonzero"/></clipPath><clipPath id="5b63a2e2f2"><path d="M 134 260 L 156 260 L 156 282 L 134 282 Z M 134 260 " clip-rule="nonzero"/></clipPath><clipPath id="6fc191e7d2"><path d="M 88.996094 57.207031 L 323.703125 95.136719 L 289.71875 305.410156 L 55.015625 267.480469 Z M 88.996094 57.207031 " clip-rule="nonzero"/></clipPath><clipPath id="e491df5b97"><path d="M 88.996094 57.207031 L 323.703125 95.136719 L 289.71875 305.410156 L 55.015625 267.480469 Z M 88.996094 57.207031 " clip-rule="nonzero"/></clipPath><clipPath id="b64df00dc6"><path d="M 88.996094 57.207031 L 323.703125 95.136719 L 289.71875 305.410156 L 55.015625 267.480469 Z M 88.996094 57.207031 " clip-rule="nonzero"/></clipPath><clipPath id="ec76f834cf"><path d="M 136.300781 258.9375 L 157.574219 262.375 L 154.140625 283.644531 L 132.863281 280.203125 Z M 136.300781 258.9375 " clip-rule="nonzero"/></clipPath><clipPath id="1da54e235b"><path d="M 136.300781 258.9375 L 157.574219 262.375 L 154.167969 283.453125 L 132.894531 280.015625 Z M 136.300781 258.9375 " clip-rule="nonzero"/></clipPath><clipPath id="f65c34199f"><path d="M 118 235 L 133 235 L 133 250 L 118 250 Z M 118 235 " clip-rule="nonzero"/></clipPath><clipPath id="71c8c51eef"><path d="M 88.996094 57.207031 L 323.703125 95.136719 L 289.71875 305.410156 L 55.015625 267.480469 Z M 88.996094 57.207031 " clip-rule="nonzero"/></clipPath><clipPath id="b74c224f69"><path d="M 88.996094 57.207031 L 323.703125 95.136719 L 289.71875 305.410156 L 55.015625 267.480469 Z M 88.996094 57.207031 " clip-rule="nonzero"/></clipPath><clipPath id="275cf7f26e"><path d="M 88.996094 57.207031 L 323.703125 95.136719 L 289.71875 305.410156 L 55.015625 267.480469 Z M 88.996094 57.207031 " clip-rule="nonzero"/></clipPath><clipPath id="92fd7376c6"><path d="M 115 231 L 137 231 L 137 253 L 115 253 Z M 115 231 " clip-rule="nonzero"/></clipPath><clipPath id="1366f0151b"><path d="M 88.996094 57.207031 L 323.703125 95.136719 L 289.71875 305.410156 L 55.015625 267.480469 Z M 88.996094 57.207031 " clip-rule="nonzero"/></clipPath><clipPath id="e0ed3f27dc"><path d="M 88.996094 57.207031 L 323.703125 95.136719 L 289.71875 305.410156 L 55.015625 267.480469 Z M 88.996094 57.207031 " clip-rule="nonzero"/></clipPath><clipPath id="02d1236382"><path d="M 88.996094 57.207031 L 323.703125 95.136719 L 289.71875 305.410156 L 55.015625 267.480469 Z M 88.996094 57.207031 " clip-rule="nonzero"/></clipPath><clipPath id="f5a0874d76"><path d="M 106 121 L 135 121 L 135 147 L 106 147 Z M 106 121 " clip-rule="nonzero"/></clipPath><clipPath id="c6d9101e26"><path d="M 88.996094 57.207031 L 323.703125 95.136719 L 289.71875 305.410156 L 55.015625 267.480469 Z M 88.996094 57.207031 " clip-rule="nonzero"/></clipPath><clipPath id="9dc9660048"><path d="M 88.996094 57.207031 L 323.703125 95.136719 L 289.71875 305.410156 L 55.015625 267.480469 Z M 88.996094 57.207031 " clip-rule="nonzero"/></clipPath><clipPath id="e6ff6f0b10"><path d="M 88.996094 57.207031 L 323.703125 95.136719 L 289.71875 305.410156 L 55.015625 267.480469 Z M 88.996094 57.207031 " clip-rule="nonzero"/></clipPath><clipPath id="2de99d6255"><path d="M 103 119 L 137 119 L 137 150 L 103 150 Z M 103 119 " clip-rule="nonzero"/></clipPath><clipPath id="730cc49b2f"><path d="M 88.996094 57.207031 L 323.703125 95.136719 L 289.71875 305.410156 L 55.015625 267.480469 Z M 88.996094 57.207031 " clip-rule="nonzero"/></clipPath><clipPath id="eeb86d4223"><path d="M 88.996094 57.207031 L 323.703125 95.136719 L 289.71875 305.410156 L 55.015625 267.480469 Z M 88.996094 57.207031 " clip-rule="nonzero"/></clipPath><clipPath id="b27d9c9d24"><path d="M 88.996094 57.207031 L 323.703125 95.136719 L 289.71875 305.410156 L 55.015625 267.480469 Z M 88.996094 57.207031 " clip-rule="nonzero"/></clipPath><clipPath id="153aa1cbf5"><path d="M 134 143 L 163 143 L 163 169 L 134 169 Z M 134 143 " clip-rule="nonzero"/></clipPath><clipPath id="32a287e7a1"><path d="M 88.996094 57.207031 L 323.703125 95.136719 L 289.71875 305.410156 L 55.015625 267.480469 Z M 88.996094 57.207031 " clip-rule="nonzero"/></clipPath><clipPath id="1d6b6f2773"><path d="M 88.996094 57.207031 L 323.703125 95.136719 L 289.71875 305.410156 L 55.015625 267.480469 Z M 88.996094 57.207031 " clip-rule="nonzero"/></clipPath><clipPath id="b00692083b"><path d="M 88.996094 57.207031 L 323.703125 95.136719 L 289.71875 305.410156 L 55.015625 267.480469 Z M 88.996094 57.207031 " clip-rule="nonzero"/></clipPath><clipPath id="f27811d691"><path d="M 131 141 L 166 141 L 166 172 L 131 172 Z M 131 141 " clip-rule="nonzero"/></clipPath><clipPath id="f5af86d74c"><path d="M 88.996094 57.207031 L 323.703125 95.136719 L 289.71875 305.410156 L 55.015625 267.480469 Z M 88.996094 57.207031 " clip-rule="nonzero"/></clipPath><clipPath id="8799a98d90"><path d="M 88.996094 57.207031 L 323.703125 95.136719 L 289.71875 305.410156 L 55.015625 267.480469 Z M 88.996094 57.207031 " clip-rule="nonzero"/></clipPath><clipPath id="9b0c8e2403"><path d="M 88.996094 57.207031 L 323.703125 95.136719 L 289.71875 305.410156 L 55.015625 267.480469 Z M 88.996094 57.207031 " clip-rule="nonzero"/></clipPath><clipPath id="288588c83c"><path d="M 119 130 L 135 130 L 135 149 L 119 149 Z M 119 130 " clip-rule="nonzero"/></clipPath><clipPath id="5d9a4c7e27"><path d="M 88.996094 57.207031 L 323.703125 95.136719 L 289.71875 305.410156 L 55.015625 267.480469 Z M 88.996094 57.207031 " clip-rule="nonzero"/></clipPath><clipPath id="05a51d3599"><path d="M 88.996094 57.207031 L 323.703125 95.136719 L 289.71875 305.410156 L 55.015625 267.480469 Z M 88.996094 57.207031 " clip-rule="nonzero"/></clipPath><clipPath id="0106828f61"><path d="M 88.996094 57.207031 L 323.703125 95.136719 L 289.71875 305.410156 L 55.015625 267.480469 Z M 88.996094 57.207031 " clip-rule="nonzero"/></clipPath><clipPath id="f25fe0ba7a"><path d="M 112 124 L 129 124 L 129 146 L 112 146 Z M 112 124 " clip-rule="nonzero"/></clipPath><clipPath id="afae8a40d9"><path d="M 88.996094 57.207031 L 323.703125 95.136719 L 289.71875 305.410156 L 55.015625 267.480469 Z M 88.996094 57.207031 " clip-rule="nonzero"/></clipPath><clipPath id="d93b01856e"><path d="M 88.996094 57.207031 L 323.703125 95.136719 L 289.71875 305.410156 L 55.015625 267.480469 Z M 88.996094 57.207031 " clip-rule="nonzero"/></clipPath><clipPath id="427a2b1021"><path d="M 88.996094 57.207031 L 323.703125 95.136719 L 289.71875 305.410156 L 55.015625 267.480469 Z M 88.996094 57.207031 " clip-rule="nonzero"/></clipPath><clipPath id="bbae45f84d"><path d="M 106 120 L 123 120 L 123 141 L 106 141 Z M 106 120 " clip-rule="nonzero"/></clipPath><clipPath id="0a41e8f8f8"><path d="M 88.996094 57.207031 L 323.703125 95.136719 L 289.71875 305.410156 L 55.015625 267.480469 Z M 88.996094 57.207031 " clip-rule="nonzero"/></clipPath><clipPath id="a53e85d2b5"><path d="M 88.996094 57.207031 L 323.703125 95.136719 L 289.71875 305.410156 L 55.015625 267.480469 Z M 88.996094 57.207031 " clip-rule="nonzero"/></clipPath><clipPath id="64f19b06e0"><path d="M 88.996094 57.207031 L 323.703125 95.136719 L 289.71875 305.410156 L 55.015625 267.480469 Z M 88.996094 57.207031 " clip-rule="nonzero"/></clipPath><clipPath id="4807dd4d08"><path d="M 134 141 L 150 141 L 150 160 L 134 160 Z M 134 141 " clip-rule="nonzero"/></clipPath><clipPath id="8b3b2055a3"><path d="M 88.996094 57.207031 L 323.703125 95.136719 L 289.71875 305.410156 L 55.015625 267.480469 Z M 88.996094 57.207031 " clip-rule="nonzero"/></clipPath><clipPath id="8f26613402"><path d="M 88.996094 57.207031 L 323.703125 95.136719 L 289.71875 305.410156 L 55.015625 267.480469 Z M 88.996094 57.207031 " clip-rule="nonzero"/></clipPath><clipPath id="df1048d2f7"><path d="M 88.996094 57.207031 L 323.703125 95.136719 L 289.71875 305.410156 L 55.015625 267.480469 Z M 88.996094 57.207031 " clip-rule="nonzero"/></clipPath><clipPath id="4ca9041930"><path d="M 140 145 L 157 145 L 157 167 L 140 167 Z M 140 145 " clip-rule="nonzero"/></clipPath><clipPath id="0e48937e44"><path d="M 88.996094 57.207031 L 323.703125 95.136719 L 289.71875 305.410156 L 55.015625 267.480469 Z M 88.996094 57.207031 " clip-rule="nonzero"/></clipPath><clipPath id="bf265e1c48"><path d="M 88.996094 57.207031 L 323.703125 95.136719 L 289.71875 305.410156 L 55.015625 267.480469 Z M 88.996094 57.207031 " clip-rule="nonzero"/></clipPath><clipPath id="e2a449bc11"><path d="M 88.996094 57.207031 L 323.703125 95.136719 L 289.71875 305.410156 L 55.015625 267.480469 Z M 88.996094 57.207031 " clip-rule="nonzero"/></clipPath><clipPath id="15ff2e4e61"><path d="M 146 150 L 163 150 L 163 171 L 146 171 Z M 146 150 " clip-rule="nonzero"/></clipPath><clipPath id="9404a77531"><path d="M 88.996094 57.207031 L 323.703125 95.136719 L 289.71875 305.410156 L 55.015625 267.480469 Z M 88.996094 57.207031 " clip-rule="nonzero"/></clipPath><clipPath id="cd5d1650f3"><path d="M 88.996094 57.207031 L 323.703125 95.136719 L 289.71875 305.410156 L 55.015625 267.480469 Z M 88.996094 57.207031 " clip-rule="nonzero"/></clipPath><clipPath id="bd8ea75cf1"><path d="M 88.996094 57.207031 L 323.703125 95.136719 L 289.71875 305.410156 L 55.015625 267.480469 Z M 88.996094 57.207031 " clip-rule="nonzero"/></clipPath><clipPath id="d50ad90155"><path d="M 276 157 L 304 157 L 304 206 L 276 206 Z M 276 157 " clip-rule="nonzero"/></clipPath><clipPath id="5ce6690e89"><path d="M 88.996094 57.207031 L 323.703125 95.136719 L 289.71875 305.410156 L 55.015625 267.480469 Z M 88.996094 57.207031 " clip-rule="nonzero"/></clipPath><clipPath id="f4b2afac2a"><path d="M 88.996094 57.207031 L 323.703125 95.136719 L 289.71875 305.410156 L 55.015625 267.480469 Z M 88.996094 57.207031 " clip-rule="nonzero"/></clipPath><clipPath id="02cff331fe"><path d="M 88.996094 57.207031 L 323.703125 95.136719 L 289.71875 305.410156 L 55.015625 267.480469 Z M 88.996094 57.207031 " clip-rule="nonzero"/></clipPath><clipPath id="01b6683490"><path d="M 276 175 L 298 175 L 298 206 L 276 206 Z M 276 175 " clip-rule="nonzero"/></clipPath><clipPath id="48f15c0e7f"><path d="M 88.996094 57.207031 L 323.703125 95.136719 L 289.71875 305.410156 L 55.015625 267.480469 Z M 88.996094 57.207031 " clip-rule="nonzero"/></clipPath><clipPath id="f7fd3ce168"><path d="M 88.996094 57.207031 L 323.703125 95.136719 L 289.71875 305.410156 L 55.015625 267.480469 Z M 88.996094 57.207031 " clip-rule="nonzero"/></clipPath><clipPath id="fef1c50d16"><path d="M 88.996094 57.207031 L 323.703125 95.136719 L 289.71875 305.410156 L 55.015625 267.480469 Z M 88.996094 57.207031 " clip-rule="nonzero"/></clipPath><clipPath id="14b002874c"><path d="M 272 152 L 308 152 L 308 209 L 272 209 Z M 272 152 " clip-rule="nonzero"/></clipPath><clipPath id="f47f9d460f"><path d="M 88.996094 57.207031 L 323.703125 95.136719 L 289.71875 305.410156 L 55.015625 267.480469 Z M 88.996094 57.207031 " clip-rule="nonzero"/></clipPath><clipPath id="f86ed01c88"><path d="M 88.996094 57.207031 L 323.703125 95.136719 L 289.71875 305.410156 L 55.015625 267.480469 Z M 88.996094 57.207031 " clip-rule="nonzero"/></clipPath><clipPath id="1dd9700524"><path d="M 88.996094 57.207031 L 323.703125 95.136719 L 289.71875 305.410156 L 55.015625 267.480469 Z M 88.996094 57.207031 " clip-rule="nonzero"/></clipPath><clipPath id="4d1b6a5f72"><path d="M 277 145 L 314 145 L 314 164 L 277 164 Z M 277 145 " clip-rule="nonzero"/></clipPath><clipPath id="08c610167b"><path d="M 88.996094 57.207031 L 323.703125 95.136719 L 289.71875 305.410156 L 55.015625 267.480469 Z M 88.996094 57.207031 " clip-rule="nonzero"/></clipPath><clipPath id="24dfe61f9a"><path d="M 88.996094 57.207031 L 323.703125 95.136719 L 289.71875 305.410156 L 55.015625 267.480469 Z M 88.996094 57.207031 " clip-rule="nonzero"/></clipPath><clipPath id="ca461253bf"><path d="M 88.996094 57.207031 L 323.703125 95.136719 L 289.71875 305.410156 L 55.015625 267.480469 Z M 88.996094 57.207031 " clip-rule="nonzero"/></clipPath><clipPath id="0fa0d01e03"><path d="M 279.128906 145.152344 L 314.691406 150.902344 L 312.578125 163.964844 L 277.019531 158.21875 Z M 279.128906 145.152344 " clip-rule="nonzero"/></clipPath><clipPath id="575bb306e8"><path d="M 279.128906 145.152344 L 314.683594 150.898438 L 312.574219 163.964844 L 277.019531 158.21875 Z M 279.128906 145.152344 " clip-rule="nonzero"/></clipPath><clipPath id="abce04eaa1"><path d="M 288 134 L 298 134 L 298 144 L 288 144 Z M 288 134 " clip-rule="nonzero"/></clipPath><clipPath id="39b89195f3"><path d="M 88.996094 57.207031 L 323.703125 95.136719 L 289.71875 305.410156 L 55.015625 267.480469 Z M 88.996094 57.207031 " clip-rule="nonzero"/></clipPath><clipPath id="6fbaba9e6b"><path d="M 88.996094 57.207031 L 323.703125 95.136719 L 289.71875 305.410156 L 55.015625 267.480469 Z M 88.996094 57.207031 " clip-rule="nonzero"/></clipPath><clipPath id="85cc070b54"><path d="M 88.996094 57.207031 L 323.703125 95.136719 L 289.71875 305.410156 L 55.015625 267.480469 Z M 88.996094 57.207031 " clip-rule="nonzero"/></clipPath><clipPath id="46c0db41a1"><path d="M 300 125 L 316 125 L 316 141 L 300 141 Z M 300 125 " clip-rule="nonzero"/></clipPath><clipPath id="b6e9207e4e"><path d="M 88.996094 57.207031 L 323.703125 95.136719 L 289.71875 305.410156 L 55.015625 267.480469 Z M 88.996094 57.207031 " clip-rule="nonzero"/></clipPath><clipPath id="e837dad8ee"><path d="M 88.996094 57.207031 L 323.703125 95.136719 L 289.71875 305.410156 L 55.015625 267.480469 Z M 88.996094 57.207031 " clip-rule="nonzero"/></clipPath><clipPath id="ae36e65ec9"><path d="M 88.996094 57.207031 L 323.703125 95.136719 L 289.71875 305.410156 L 55.015625 267.480469 Z M 88.996094 57.207031 " clip-rule="nonzero"/></clipPath><clipPath id="a28597996a"><path d="M 97 168 L 119 168 L 119 194 L 97 194 Z M 97 168 " clip-rule="nonzero"/></clipPath><clipPath id="00dfd7edef"><path d="M 88.996094 57.207031 L 323.703125 95.136719 L 289.71875 305.410156 L 55.015625 267.480469 Z M 88.996094 57.207031 " clip-rule="nonzero"/></clipPath><clipPath id="1caef279ff"><path d="M 88.996094 57.207031 L 323.703125 95.136719 L 289.71875 305.410156 L 55.015625 267.480469 Z M 88.996094 57.207031 " clip-rule="nonzero"/></clipPath><clipPath id="c125206b6d"><path d="M 88.996094 57.207031 L 323.703125 95.136719 L 289.71875 305.410156 L 55.015625 267.480469 Z M 88.996094 57.207031 " clip-rule="nonzero"/></clipPath><clipPath id="9c2bba0386"><path d="M 192 138 L 267 138 L 267 171 L 192 171 Z M 192 138 " clip-rule="nonzero"/></clipPath><clipPath id="1dbaf74148"><path d="M 189.894531 155.558594 L 200.054688 128.128906 L 269.679688 153.917969 L 259.519531 181.347656 Z M 189.894531 155.558594 " clip-rule="nonzero"/></clipPath><clipPath id="1bb4708f31"><path d="M 189.894531 155.558594 L 200.054688 128.128906 L 269.679688 153.917969 L 259.519531 181.347656 Z M 189.894531 155.558594 " clip-rule="nonzero"/></clipPath><clipPath id="ccded8b5c1"><path d="M 189.945312 155.578125 L 200.140625 128.042969 L 269.464844 153.722656 L 259.265625 181.253906 Z M 189.945312 155.578125 " clip-rule="nonzero"/></clipPath><clipPath id="5bbb4a9c23"><path d="M 189.945312 155.578125 L 200.132812 128.070312 L 269.449219 153.746094 L 259.261719 181.253906 Z M 189.945312 155.578125 " clip-rule="nonzero"/></clipPath><clipPath id="1ee704eb05"><path d="M 256 151 L 260 151 L 260 163 L 256 163 Z M 256 151 " clip-rule="nonzero"/></clipPath><clipPath id="ea169066ce"><path d="M 189.894531 155.558594 L 200.054688 128.128906 L 269.679688 153.917969 L 259.519531 181.347656 Z M 189.894531 155.558594 " clip-rule="nonzero"/></clipPath><clipPath id="3f6e78d4a6"><path d="M 189.894531 155.558594 L 200.054688 128.128906 L 269.679688 153.917969 L 259.519531 181.347656 Z M 189.894531 155.558594 " clip-rule="nonzero"/></clipPath><clipPath id="9711ee7ac6"><path d="M 237 147 L 242 147 L 242 159 L 237 159 Z M 237 147 " clip-rule="nonzero"/></clipPath><clipPath id="da4326e558"><path d="M 189.894531 155.558594 L 200.054688 128.128906 L 269.679688 153.917969 L 259.519531 181.347656 Z M 189.894531 155.558594 " clip-rule="nonzero"/></clipPath><clipPath id="3639548cce"><path d="M 189.894531 155.558594 L 200.054688 128.128906 L 269.679688 153.917969 L 259.519531 181.347656 Z M 189.894531 155.558594 " clip-rule="nonzero"/></clipPath><clipPath id="fa8c6c81d6"><path d="M 219 144 L 223 144 L 223 156 L 219 156 Z M 219 144 " clip-rule="nonzero"/></clipPath><clipPath id="c24332ff80"><path d="M 189.894531 155.558594 L 200.054688 128.128906 L 269.679688 153.917969 L 259.519531 181.347656 Z M 189.894531 155.558594 " clip-rule="nonzero"/></clipPath><clipPath id="5f27a2f281"><path d="M 189.894531 155.558594 L 200.054688 128.128906 L 269.679688 153.917969 L 259.519531 181.347656 Z M 189.894531 155.558594 " clip-rule="nonzero"/></clipPath><clipPath id="b574eb48a5"><path d="M 224 145 L 228 145 L 228 153 L 224 153 Z M 224 145 " clip-rule="nonzero"/></clipPath><clipPath id="ccec68bf7a"><path d="M 189.894531 155.558594 L 200.054688 128.128906 L 269.679688 153.917969 L 259.519531 181.347656 Z M 189.894531 155.558594 " clip-rule="nonzero"/></clipPath><clipPath id="b5bd29902f"><path d="M 189.894531 155.558594 L 200.054688 128.128906 L 269.679688 153.917969 L 259.519531 181.347656 Z M 189.894531 155.558594 " clip-rule="nonzero"/></clipPath><clipPath id="a5a6246bfe"><path d="M 234 147 L 237 147 L 237 154 L 234 154 Z M 234 147 " clip-rule="nonzero"/></clipPath><clipPath id="d41ee894bb"><path d="M 189.894531 155.558594 L 200.054688 128.128906 L 269.679688 153.917969 L 259.519531 181.347656 Z M 189.894531 155.558594 " clip-rule="nonzero"/></clipPath><clipPath id="3a08b754b4"><path d="M 189.894531 155.558594 L 200.054688 128.128906 L 269.679688 153.917969 L 259.519531 181.347656 Z M 189.894531 155.558594 " clip-rule="nonzero"/></clipPath><clipPath id="c5c6120c66"><path d="M 229 146 L 232 146 L 232 154 L 229 154 Z M 229 146 " clip-rule="nonzero"/></clipPath><clipPath id="7167b81e96"><path d="M 189.894531 155.558594 L 200.054688 128.128906 L 269.679688 153.917969 L 259.519531 181.347656 Z M 189.894531 155.558594 " clip-rule="nonzero"/></clipPath><clipPath id="68821c9f7c"><path d="M 189.894531 155.558594 L 200.054688 128.128906 L 269.679688 153.917969 L 259.519531 181.347656 Z M 189.894531 155.558594 " clip-rule="nonzero"/></clipPath><clipPath id="ddadf9bfe0"><path d="M 243 149 L 246 149 L 246 156 L 243 156 Z M 243 149 " clip-rule="nonzero"/></clipPath><clipPath id="9e07b7c469"><path d="M 189.894531 155.558594 L 200.054688 128.128906 L 269.679688 153.917969 L 259.519531 181.347656 Z M 189.894531 155.558594 " clip-rule="nonzero"/></clipPath><clipPath id="f240d4154e"><path d="M 189.894531 155.558594 L 200.054688 128.128906 L 269.679688 153.917969 L 259.519531 181.347656 Z M 189.894531 155.558594 " clip-rule="nonzero"/></clipPath><clipPath id="b05c417555"><path d="M 252 150 L 255 150 L 255 158 L 252 158 Z M 252 150 " clip-rule="nonzero"/></clipPath><clipPath id="1a6cc1e44a"><path d="M 189.894531 155.558594 L 200.054688 128.128906 L 269.679688 153.917969 L 259.519531 181.347656 Z M 189.894531 155.558594 " clip-rule="nonzero"/></clipPath><clipPath id="7c5e158856"><path d="M 189.894531 155.558594 L 200.054688 128.128906 L 269.679688 153.917969 L 259.519531 181.347656 Z M 189.894531 155.558594 " clip-rule="nonzero"/></clipPath><clipPath id="af355e4e1c"><path d="M 248 149 L 251 149 L 251 157 L 248 157 Z M 248 149 " clip-rule="nonzero"/></clipPath><clipPath id="ce5b013830"><path d="M 189.894531 155.558594 L 200.054688 128.128906 L 269.679688 153.917969 L 259.519531 181.347656 Z M 189.894531 155.558594 " clip-rule="nonzero"/></clipPath><clipPath id="38e6560436"><path d="M 189.894531 155.558594 L 200.054688 128.128906 L 269.679688 153.917969 L 259.519531 181.347656 Z M 189.894531 155.558594 " clip-rule="nonzero"/></clipPath><clipPath id="5d716920da"><path d="M 206 141 L 209 141 L 209 149 L 206 149 Z M 206 141 " clip-rule="nonzero"/></clipPath><clipPath id="f1c168b01c"><path d="M 189.894531 155.558594 L 200.054688 128.128906 L 269.679688 153.917969 L 259.519531 181.347656 Z M 189.894531 155.558594 " clip-rule="nonzero"/></clipPath><clipPath id="0a8a13a460"><path d="M 189.894531 155.558594 L 200.054688 128.128906 L 269.679688 153.917969 L 259.519531 181.347656 Z M 189.894531 155.558594 " clip-rule="nonzero"/></clipPath><clipPath id="f5a6124b92"><path d="M 215 143 L 218 143 L 218 151 L 215 151 Z M 215 143 " clip-rule="nonzero"/></clipPath><clipPath id="8a5a0cea63"><path d="M 189.894531 155.558594 L 200.054688 128.128906 L 269.679688 153.917969 L 259.519531 181.347656 Z M 189.894531 155.558594 " clip-rule="nonzero"/></clipPath><clipPath id="7ffcef5b56"><path d="M 189.894531 155.558594 L 200.054688 128.128906 L 269.679688 153.917969 L 259.519531 181.347656 Z M 189.894531 155.558594 " clip-rule="nonzero"/></clipPath><clipPath id="4dbb992ab6"><path d="M 211 142 L 214 142 L 214 150 L 211 150 Z M 211 142 " clip-rule="nonzero"/></clipPath><clipPath id="77e4ed4e5e"><path d="M 189.894531 155.558594 L 200.054688 128.128906 L 269.679688 153.917969 L 259.519531 181.347656 Z M 189.894531 155.558594 " clip-rule="nonzero"/></clipPath><clipPath id="fcf42d03a7"><path d="M 189.894531 155.558594 L 200.054688 128.128906 L 269.679688 153.917969 L 259.519531 181.347656 Z M 189.894531 155.558594 " clip-rule="nonzero"/></clipPath><clipPath id="bc6dfe54b3"><path d="M 200 140 L 205 140 L 205 152 L 200 152 Z M 200 140 " clip-rule="nonzero"/></clipPath><clipPath id="64e04e6f51"><path d="M 189.894531 155.558594 L 200.054688 128.128906 L 269.679688 153.917969 L 259.519531 181.347656 Z M 189.894531 155.558594 " clip-rule="nonzero"/></clipPath><clipPath id="6309fdd782"><path d="M 189.894531 155.558594 L 200.054688 128.128906 L 269.679688 153.917969 L 259.519531 181.347656 Z M 189.894531 155.558594 " clip-rule="nonzero"/></clipPath></defs><g clip-path="url(#ce9ace216d)"><g clip-path="url(#3b6341cabd)"><g clip-path="url(#54dee301d7)"><g clip-path="url(#c6df242c59)"><path fill="#72d6bd" d="M 232.402344 278.96875 C 230.203125 274.484375 228 269.996094 225.851562 265.484375 C 228.777344 264.851562 231.679688 264.105469 234.554688 263.238281 C 233.871094 268.488281 233.175781 273.730469 232.402344 278.96875 Z M 303.28125 195.25 C 316.667969 94.050781 83.339844 92.140625 106.628906 214.226562 C 115.539062 260.949219 193.574219 270.550781 218.636719 266.796875 C 222.753906 275.367188 226.664062 284.085938 230.71875 292.667969 C 232.289062 296 236.984375 296.019531 237.75 291.730469 C 239.59375 281.378906 241.339844 270.933594 242.65625 260.460938 C 252.355469 256.703125 261.6875 251.515625 270.375 244.722656 C 285.160156 233.160156 300.59375 215.570312 303.28125 195.25 " fill-opacity="1" fill-rule="nonzero"/></g></g></g></g><g clip-path="url(#96e0dadf6d)"><g clip-path="url(#d67669a135)"><g clip-path="url(#e1ea8897da)"><g clip-path="url(#b78d83568f)"><path fill="#fe7375" d="M 285.417969 245.769531 C 284.003906 245.539062 282.667969 246.503906 282.4375 247.914062 C 282.210938 249.328125 283.175781 250.664062 284.589844 250.894531 C 286 251.121094 287.335938 250.15625 287.566406 248.746094 C 287.792969 247.332031 286.828125 245.996094 285.417969 245.769531 Z M 283.390625 258.296875 C 277.894531 257.40625 274.144531 252.214844 275.03125 246.71875 C 275.917969 241.222656 281.113281 237.476562 286.613281 238.363281 C 292.109375 239.253906 295.859375 244.445312 294.972656 249.941406 C 294.085938 255.4375 288.890625 259.183594 283.390625 258.296875 " fill-opacity="1" fill-rule="nonzero"/></g></g></g></g><g clip-path="url(#9061d9a44a)"><g clip-path="url(#35d14b28b5)"><g clip-path="url(#dfe6ec860c)"><g clip-path="url(#c6e9189ef6)"><path fill="#56ccae" d="M 291.644531 199.832031 C 284.109375 214.253906 271.542969 226.503906 258.394531 235.5 C 240.261719 247.898438 219.242188 254.496094 197.910156 255.535156 C 200.199219 254.964844 202.457031 254.320312 204.671875 253.578125 C 215.058594 250.113281 225.980469 245.011719 235.90625 238.578125 C 258.375 234.542969 278.871094 223.761719 289.523438 201.085938 C 297.1875 184.773438 293.691406 167.65625 281.820312 155.261719 C 286.070312 158.867188 289.824219 163.167969 292.585938 168.023438 C 298.464844 178.367188 297.050781 189.484375 291.644531 199.832031 Z M 114.046875 180.875 C 119.222656 165.855469 129.199219 154.730469 141.5 146.894531 C 137.652344 151.371094 134.148438 156.253906 131.171875 161.675781 C 123.878906 174.957031 120.507812 191.136719 126.230469 204.792969 C 126.109375 205.523438 125.972656 206.246094 125.886719 206.980469 C 124.191406 221.429688 130.839844 235.601562 141.300781 244.90625 C 132.53125 240.761719 124.570312 235.058594 119.054688 226.972656 C 110.046875 213.773438 108.835938 196 114.046875 180.875 Z M 196.738281 131.773438 C 209.226562 131.648438 221.753906 133.058594 233.9375 135.875 C 206.964844 135.003906 178.671875 143.863281 157.589844 159.710938 C 144.824219 169.3125 131.984375 183.46875 127.378906 199.617188 C 122.683594 183.148438 130.929688 164.976562 140.894531 152.171875 C 143.71875 148.546875 146.847656 145.191406 150.183594 142.070312 C 164.644531 135.109375 181.230469 131.929688 196.738281 131.773438 Z M 256.238281 221.597656 C 267.621094 208.96875 273.441406 188.953125 261.882812 174.648438 C 258.585938 170.566406 254.457031 167.464844 249.863281 165.097656 C 239.808594 153.925781 220.835938 154 207.238281 156.574219 C 200.398438 157.875 193.519531 160.03125 186.875 162.914062 C 176.238281 166.171875 166.128906 171.269531 157.742188 178.421875 C 145.292969 189.039062 137.1875 205.699219 144.792969 221.578125 C 138.222656 217.277344 132.628906 211.742188 129.300781 204.730469 C 131.773438 191.191406 141 178.78125 150.542969 169.605469 C 161.765625 158.808594 175.566406 151.070312 190.050781 146.074219 C 208.871094 139.582031 231.007812 136.65625 251.09375 140.878906 C 251.714844 141.097656 252.347656 141.292969 252.96875 141.523438 C 268.898438 147.394531 285.65625 157.542969 289.996094 175.660156 C 294.386719 193.988281 281.730469 212.09375 267.753906 222.304688 C 259.925781 228.027344 251.195312 231.859375 242.074219 234.3125 C 247.289062 230.445312 252.097656 226.195312 256.238281 221.597656 Z M 220.238281 237.652344 C 215.503906 237.875 210.714844 237.855469 205.917969 237.648438 C 219.515625 232.3125 232.140625 223.710938 240.375 214.835938 C 240.496094 214.703125 240.617188 214.558594 240.742188 214.425781 C 248.105469 208.890625 253.734375 201.738281 254.640625 192.347656 C 254.671875 192.011719 254.648438 191.707031 254.667969 191.378906 C 256.648438 184.816406 256.839844 177.996094 254.003906 171.582031 C 269.472656 183.320312 266.972656 204.496094 254.765625 218.597656 C 248.898438 225.371094 241.429688 231.222656 233.46875 236.226562 C 229.09375 236.972656 224.667969 237.449219 220.238281 237.652344 Z M 227.027344 192.609375 C 217.253906 180.488281 203.449219 191.652344 197.332031 201.882812 C 196.769531 202.820312 197.445312 204 198.386719 204.230469 C 205.070312 205.84375 211.445312 204.394531 216.6875 200.28125 C 216.632812 200.828125 216.578125 201.371094 216.523438 201.917969 C 212.078125 205.203125 206.421875 207.566406 202.0625 208.695312 C 198.328125 209.660156 192.394531 210.773438 188.847656 208.410156 C 181.757812 203.679688 190.753906 195.082031 193.863281 192.085938 C 200.4375 185.742188 208.949219 181.113281 218.125 181.484375 C 225.109375 181.765625 229.566406 186.105469 227.027344 192.609375 Z M 219.976562 196.03125 C 219.667969 194.84375 218.132812 194.632812 217.355469 195.464844 C 212.9375 200.207031 207.382812 202.222656 201.355469 201.441406 C 203.542969 198.019531 206.09375 194.722656 209.554688 192.625 C 212.726562 190.707031 226.050781 189.300781 222.1875 195.980469 C 221.695312 196.824219 221.09375 197.632812 220.417969 198.410156 C 220.34375 197.664062 220.199219 196.882812 219.976562 196.03125 Z M 184.65625 238.328125 C 186.320312 238.589844 188.015625 238.824219 189.726562 239.042969 C 177.601562 240.722656 165.050781 238.832031 155.675781 230.675781 C 164.960938 234.550781 175.03125 236.824219 184.65625 238.328125 Z M 198.636719 237.171875 C 191.613281 236.5625 184.625 235.523438 177.78125 234.070312 C 189.613281 234.65625 202.222656 231.464844 212.652344 227.972656 C 217.449219 226.371094 222.910156 224.355469 228.277344 221.808594 C 220.433594 228.019531 211.5625 232.894531 202.273438 236.050781 C 201.082031 236.457031 199.863281 236.824219 198.636719 237.171875 Z M 215.507812 158.460938 C 222.3125 157.808594 229.140625 158.191406 235.417969 160.164062 C 228.757812 158.796875 221.886719 158.359375 215.507812 158.460938 Z M 206.679688 162.152344 C 220.101562 160.773438 235.449219 161.53125 247.847656 167.757812 C 251.046875 171.484375 252.488281 175.972656 252.609375 180.75 C 247.347656 170.371094 233.335938 166.003906 221.828125 166.582031 C 203.109375 167.515625 180.613281 175.695312 167.484375 190.113281 C 155.195312 203.609375 165.074219 218.6875 181.371094 218.765625 C 194.75 218.828125 213.59375 212.976562 224.1875 202.078125 C 227.339844 200.085938 230.363281 197.917969 233.289062 195.484375 C 234.796875 194.230469 233.199219 191.613281 231.667969 192.878906 C 231.023438 193.414062 230.359375 193.910156 229.707031 194.417969 C 231.867188 189.839844 232.621094 183.601562 228.160156 180.59375 C 221.535156 176.121094 210.5625 178.164062 203.824219 181.265625 C 196.109375 184.8125 172.164062 203.195312 187.359375 211.304688 C 189.878906 212.648438 192.574219 213.289062 195.34375 213.371094 C 194.855469 213.503906 194.378906 213.675781 193.890625 213.796875 C 184.765625 216.03125 168.929688 218.074219 165.160156 206.292969 C 161.761719 195.664062 175.046875 187.078125 182.359375 182.570312 C 196.855469 173.640625 216.789062 166.816406 233.648438 170.632812 C 242.730469 172.6875 251.078125 179.652344 251.582031 189.425781 C 249.953125 195.863281 246.605469 202.234375 242.648438 207.367188 C 241.636719 208.675781 240.558594 209.925781 239.46875 211.167969 C 237.664062 212.554688 235.773438 213.8125 233.875 214.945312 C 218.679688 224.035156 200.167969 229.988281 182.660156 230.695312 C 173.117188 231.078125 163.050781 229.234375 155.839844 222.472656 C 148.023438 215.148438 146.035156 204.710938 151.199219 194.960938 C 158.273438 181.605469 174.558594 171.703125 188.539062 165.742188 C 194.53125 163.960938 200.660156 162.773438 206.679688 162.152344 Z M 145.789062 203.171875 C 144.609375 211.730469 147.5625 220.320312 156.050781 226.804688 C 156.894531 227.449219 157.765625 228.019531 158.648438 228.566406 C 155.847656 227.472656 153.0625 226.238281 150.363281 224.824219 C 145.53125 218.011719 144.324219 210.457031 145.789062 203.171875 Z M 162.339844 252.109375 C 160.074219 251.550781 157.78125 250.929688 155.484375 250.242188 C 141.679688 244.054688 130.539062 231.371094 128.835938 215.507812 C 128.621094 213.503906 128.601562 211.519531 128.714844 209.546875 C 129.597656 210.980469 130.554688 212.394531 131.679688 213.746094 C 136.234375 219.207031 141.761719 223.472656 147.832031 226.863281 C 159.417969 244.246094 179.628906 245.875 199.0625 240.023438 C 208.335938 240.757812 218 240.785156 227.492188 239.769531 C 222.519531 242.558594 217.460938 245.054688 212.546875 247.191406 C 201.636719 251.941406 189.832031 254.984375 178.074219 254.886719 C 172.789062 254.289062 167.527344 253.390625 162.339844 252.109375 Z M 299.398438 176.652344 C 296.132812 159.3125 279.375 146.855469 264.136719 141.382812 C 261.578125 140.460938 258.953125 139.695312 256.304688 139.007812 C 243.960938 134.078125 230.421875 131.40625 218.160156 129.875 C 199.078125 127.492188 177.390625 129.3125 158.503906 135.136719 C 136.453125 141.9375 120.355469 157.90625 112.761719 175.472656 C 105.945312 191.230469 105.945312 210.203125 114.210938 225.214844 C 122.722656 240.679688 139.234375 248.886719 155.511719 253.664062 C 161.855469 256.261719 168.625 257.597656 175.496094 257.902344 C 210.804688 262.507812 247.390625 252.039062 274.308594 226.929688 C 287.25 214.859375 303.03125 195.9375 299.398438 176.652344 " fill-opacity="1" fill-rule="nonzero"/></g></g></g></g><g clip-path="url(#a42b691d07)"><g clip-path="url(#9fa19d0be0)"><g clip-path="url(#5b023912ce)"><g clip-path="url(#8f5c3efad3)"><path fill="#f8c935" d="M 163.300781 136.109375 L 179.28125 102.632812 L 198.398438 127.214844 Z M 163.300781 136.109375 " fill-opacity="1" fill-rule="nonzero"/></g></g></g></g><g clip-path="url(#10ae2dafc3)"><g clip-path="url(#bc30417c03)"><g clip-path="url(#22db34c600)"><g clip-path="url(#17e47b3480)"><path fill="#fe7375" d="M 180.050781 109.730469 L 170.132812 130.507812 L 191.914062 124.992188 Z M 156.472656 141.707031 L 178.515625 95.535156 L 204.878906 129.441406 L 156.472656 141.707031 " fill-opacity="1" fill-rule="nonzero"/></g></g></g></g><g clip-path="url(#17e2214827)"><g clip-path="url(#d951f8e9b1)"><g clip-path="url(#18597d9d8b)"><g clip-path="url(#529603d19b)"><path fill="#91406c" d="M 143.121094 258.34375 L 129.890625 248.785156 C 128.210938 247.574219 127.832031 245.230469 129.046875 243.550781 C 130.257812 241.871094 132.605469 241.496094 134.285156 242.707031 L 142.304688 248.503906 L 150.210938 240.511719 C 151.671875 239.042969 154.042969 239.027344 155.515625 240.484375 C 156.988281 241.9375 157.003906 244.3125 155.546875 245.785156 L 143.121094 258.34375 " fill-opacity="1" fill-rule="nonzero"/></g></g></g></g><g clip-path="url(#dca7e9db60)"><g clip-path="url(#c0a1bc5e46)"><g clip-path="url(#f757d7e9c6)"><g clip-path="url(#c8422aabb2)"><path fill="#91406c" d="M 143.621094 267.820312 C 142.039062 267.566406 140.738281 266.308594 140.503906 264.640625 L 138.996094 253.945312 C 138.707031 251.898438 140.136719 250 142.1875 249.710938 C 144.230469 249.421875 146.136719 250.847656 146.425781 252.902344 L 147.933594 263.597656 C 148.222656 265.648438 146.792969 267.542969 144.742188 267.832031 C 144.359375 267.886719 143.984375 267.878906 143.621094 267.820312 " fill-opacity="1" fill-rule="nonzero"/></g></g></g></g><g clip-path="url(#142e890826)"><g clip-path="url(#6647880c85)"><g clip-path="url(#472f6cb83c)"><g clip-path="url(#7f8c1ca75f)"><path fill="#f8cc40" d="M 165.277344 238.914062 C 164.671875 242.664062 161.140625 245.210938 157.390625 244.605469 C 153.644531 244 151.09375 240.46875 151.699219 236.71875 C 152.304688 232.972656 155.835938 230.425781 159.585938 231.03125 C 163.335938 231.636719 165.882812 235.167969 165.277344 238.914062 " fill-opacity="1" fill-rule="nonzero"/></g></g></g></g><g clip-path="url(#6dd2bfa184)"><g clip-path="url(#eeb6c09e2b)"><g clip-path="url(#23a3b72a24)"><g clip-path="url(#69c6047f9f)"><path fill="#91406c" d="M 158.988281 234.734375 C 157.285156 234.457031 155.679688 235.617188 155.402344 237.320312 C 155.128906 239.019531 156.289062 240.628906 157.992188 240.902344 C 159.691406 241.179688 161.300781 240.019531 161.574219 238.316406 C 161.851562 236.617188 160.691406 235.007812 158.988281 234.734375 Z M 156.792969 248.304688 C 151.011719 247.371094 147.0625 241.90625 147.996094 236.121094 C 148.933594 230.339844 154.398438 226.394531 160.183594 227.328125 C 165.96875 228.265625 169.917969 233.730469 168.980469 239.515625 C 168.046875 245.296875 162.578125 249.242188 156.792969 248.304688 " fill-opacity="1" fill-rule="nonzero"/></g></g></g></g><g clip-path="url(#3b9ad778ec)"><g clip-path="url(#f61e28c581)"><g clip-path="url(#2051ddd840)"><g clip-path="url(#3e27fb99d3)"><path fill="#f8cc40" d="M 151.910156 272.328125 C 151.304688 276.074219 147.773438 278.625 144.023438 278.015625 C 140.273438 277.410156 137.726562 273.878906 138.332031 270.132812 C 138.9375 266.382812 142.46875 263.835938 146.21875 264.441406 C 149.96875 265.046875 152.515625 268.578125 151.910156 272.328125 " fill-opacity="1" fill-rule="nonzero"/></g></g></g></g><g clip-path="url(#5b63a2e2f2)"><g clip-path="url(#6fc191e7d2)"><g clip-path="url(#e491df5b97)"><g clip-path="url(#b64df00dc6)"><g clip-path="url(#ec76f834cf)"><g clip-path="url(#1da54e235b)"><path fill="#91406c" d="M 145.617188 268.144531 C 143.917969 267.867188 142.308594 269.027344 142.035156 270.730469 C 141.757812 272.433594 142.917969 274.039062 144.621094 274.3125 C 146.324219 274.589844 147.933594 273.429688 148.207031 271.726562 C 148.480469 270.027344 147.320312 268.417969 145.617188 268.144531 Z M 143.425781 281.71875 C 137.640625 280.78125 133.691406 275.316406 134.628906 269.53125 C 135.5625 263.75 141.03125 259.804688 146.816406 260.738281 C 152.601562 261.675781 156.546875 267.140625 155.613281 272.925781 C 154.679688 278.707031 149.210938 282.652344 143.425781 281.71875 " fill-opacity="1" fill-rule="nonzero"/></g></g></g></g></g></g><g clip-path="url(#f65c34199f)"><g clip-path="url(#71c8c51eef)"><g clip-path="url(#b74c224f69)"><g clip-path="url(#275cf7f26e)"><path fill="#f8cc40" d="M 132.460938 243.433594 C 131.855469 247.179688 128.324219 249.726562 124.574219 249.121094 C 120.824219 248.515625 118.273438 244.984375 118.878906 241.238281 C 119.488281 237.488281 123.015625 234.941406 126.769531 235.546875 C 130.515625 236.152344 133.066406 239.683594 132.460938 243.433594 " fill-opacity="1" fill-rule="nonzero"/></g></g></g></g><g clip-path="url(#92fd7376c6)"><g clip-path="url(#1366f0151b)"><g clip-path="url(#e0ed3f27dc)"><g clip-path="url(#02d1236382)"><path fill="#91406c" d="M 126.167969 239.25 C 124.46875 238.972656 122.859375 240.132812 122.582031 241.835938 C 122.308594 243.539062 123.46875 245.144531 125.171875 245.421875 C 126.875 245.695312 128.480469 244.535156 128.757812 242.835938 C 129.03125 241.132812 127.871094 239.523438 126.167969 239.25 Z M 123.976562 252.824219 C 118.191406 251.886719 114.242188 246.421875 115.175781 240.640625 C 116.113281 234.855469 121.582031 230.910156 127.367188 231.847656 C 133.152344 232.78125 137.097656 238.246094 136.164062 244.03125 C 135.230469 249.8125 129.761719 253.757812 123.976562 252.824219 " fill-opacity="1" fill-rule="nonzero"/></g></g></g></g><g clip-path="url(#f5a0874d76)"><g clip-path="url(#c6d9101e26)"><g clip-path="url(#9dc9660048)"><g clip-path="url(#e6ff6f0b10)"><path fill="#f8cc40" d="M 134.234375 145.558594 C 134.234375 145.558594 125.660156 148.730469 116.429688 144.53125 C 108.003906 140.695312 103.613281 132.628906 107.789062 126.472656 C 111.96875 120.3125 119.691406 120.027344 127.769531 127.816406 C 135.789062 135.550781 134.234375 145.558594 134.234375 145.558594 " fill-opacity="1" fill-rule="nonzero"/></g></g></g></g><g clip-path="url(#2de99d6255)"><g clip-path="url(#730cc49b2f)"><g clip-path="url(#eeb86d4223)"><g clip-path="url(#b27d9c9d24)"><path fill="#59b8ba" d="M 117.25 124.519531 C 116.53125 124.402344 115.832031 124.375 115.164062 124.445312 C 113.039062 124.667969 111.253906 125.820312 109.863281 127.875 C 108.691406 129.597656 108.394531 131.527344 108.980469 133.609375 C 109.945312 137.042969 113.117188 140.277344 117.46875 142.257812 C 123.5 145 129.234375 144.238281 131.863281 143.632812 C 131.902344 140.8125 131.292969 134.6875 126.035156 129.617188 C 123.023438 126.710938 119.976562 124.957031 117.25 124.519531 Z M 122.183594 148.855469 C 120.03125 148.507812 117.734375 147.871094 115.394531 146.804688 C 109.722656 144.222656 105.523438 139.796875 104.164062 134.960938 C 103.191406 131.496094 103.746094 127.984375 105.722656 125.070312 C 107.949219 121.78125 111.035156 119.847656 114.644531 119.472656 C 119.414062 118.976562 124.550781 121.238281 129.503906 126.015625 C 138.359375 134.550781 136.777344 145.480469 136.707031 145.941406 L 136.484375 147.390625 L 135.105469 147.902344 C 134.804688 148.011719 129.277344 150 122.183594 148.855469 " fill-opacity="1" fill-rule="nonzero"/></g></g></g></g><g clip-path="url(#153aa1cbf5)"><g clip-path="url(#32a287e7a1)"><g clip-path="url(#1d6b6f2773)"><g clip-path="url(#b00692083b)"><path fill="#f8cc40" d="M 134.519531 145.140625 C 134.519531 145.140625 143.097656 141.964844 152.324219 146.167969 C 160.75 150.003906 165.140625 158.070312 160.964844 164.226562 C 156.785156 170.382812 149.0625 170.667969 140.984375 162.882812 C 132.964844 155.148438 134.519531 145.140625 134.519531 145.140625 " fill-opacity="1" fill-rule="nonzero"/></g></g></g></g><g clip-path="url(#f27811d691)"><g clip-path="url(#f5af86d74c)"><g clip-path="url(#8799a98d90)"><g clip-path="url(#9b0c8e2403)"><path fill="#59b8ba" d="M 136.890625 147.074219 C 136.855469 149.902344 137.46875 156.019531 142.722656 161.082031 C 146.527344 164.75 150.382812 166.582031 153.589844 166.253906 C 155.714844 166.03125 157.5 164.878906 158.894531 162.824219 C 160.0625 161.101562 160.359375 159.171875 159.773438 157.089844 C 158.808594 153.65625 155.636719 150.421875 151.289062 148.441406 C 145.308594 145.71875 139.535156 146.480469 136.890625 147.074219 Z M 150.675781 171.121094 C 146.925781 170.511719 143.035156 168.332031 139.25 164.679688 C 130.398438 156.144531 131.976562 145.21875 132.046875 144.757812 L 132.273438 143.304688 L 133.652344 142.796875 C 134.039062 142.652344 143.3125 139.3125 153.359375 143.890625 C 159.035156 146.476562 163.230469 150.902344 164.589844 155.738281 C 165.5625 159.203125 165.011719 162.714844 163.035156 165.628906 C 160.804688 168.914062 157.71875 170.847656 154.109375 171.226562 C 152.984375 171.34375 151.835938 171.308594 150.675781 171.121094 " fill-opacity="1" fill-rule="nonzero"/></g></g></g></g><g clip-path="url(#288588c83c)"><g clip-path="url(#5d9a4c7e27)"><g clip-path="url(#05a51d3599)"><g clip-path="url(#0106828f61)"><path fill="#59b8ba" d="M 121.46875 148.71875 C 121.078125 148.65625 120.695312 148.5 120.355469 148.242188 C 119.257812 147.40625 119.042969 145.835938 119.878906 144.738281 L 129.8125 131.667969 C 130.648438 130.566406 132.214844 130.355469 133.316406 131.191406 C 134.417969 132.027344 134.632812 133.597656 133.796875 134.695312 L 123.859375 147.761719 C 123.28125 148.527344 122.351562 148.859375 121.46875 148.71875 " fill-opacity="1" fill-rule="nonzero"/></g></g></g></g><g clip-path="url(#f25fe0ba7a)"><g clip-path="url(#afae8a40d9)"><g clip-path="url(#d93b01856e)"><g clip-path="url(#427a2b1021)"><path fill="#59b8ba" d="M 114.34375 145.425781 C 113.972656 145.367188 113.609375 145.222656 113.285156 144.988281 C 112.164062 144.183594 111.910156 142.621094 112.714844 141.5 L 124.363281 125.296875 C 125.167969 124.179688 126.726562 123.917969 127.851562 124.730469 C 128.976562 125.535156 129.230469 127.097656 128.421875 128.21875 L 116.777344 144.417969 C 116.207031 145.214844 115.25 145.574219 114.34375 145.425781 " fill-opacity="1" fill-rule="nonzero"/></g></g></g></g><g clip-path="url(#bbae45f84d)"><g clip-path="url(#0a41e8f8f8)"><g clip-path="url(#a53e85d2b5)"><g clip-path="url(#64f19b06e0)"><path fill="#59b8ba" d="M 108.386719 140.398438 C 107.996094 140.335938 107.613281 140.175781 107.273438 139.917969 C 106.175781 139.082031 105.964844 137.515625 106.800781 136.414062 L 118.15625 121.5 C 118.992188 120.402344 120.554688 120.183594 121.660156 121.027344 C 122.757812 121.863281 122.972656 123.433594 122.136719 124.53125 L 110.78125 139.445312 C 110.199219 140.203125 109.269531 140.539062 108.386719 140.398438 " fill-opacity="1" fill-rule="nonzero"/></g></g></g></g><g clip-path="url(#4807dd4d08)"><g clip-path="url(#8b3b2055a3)"><g clip-path="url(#8f26613402)"><g clip-path="url(#df1048d2f7)"><path fill="#59b8ba" d="M 136.75 159.914062 C 136.359375 159.847656 135.976562 159.691406 135.636719 159.4375 C 134.539062 158.597656 134.324219 157.03125 135.160156 155.933594 L 145.097656 142.863281 C 145.933594 141.765625 147.5 141.546875 148.601562 142.386719 C 149.699219 143.222656 149.914062 144.789062 149.078125 145.890625 L 139.144531 158.957031 C 138.5625 159.71875 137.632812 160.054688 136.75 159.914062 " fill-opacity="1" fill-rule="nonzero"/></g></g></g></g><g clip-path="url(#4ca9041930)"><g clip-path="url(#0e48937e44)"><g clip-path="url(#bf265e1c48)"><g clip-path="url(#e2a449bc11)"><path fill="#59b8ba" d="M 142.164062 166.339844 C 141.792969 166.277344 141.429688 166.136719 141.105469 165.902344 C 139.984375 165.09375 139.726562 163.53125 140.535156 162.410156 L 152.183594 146.210938 C 152.988281 145.089844 154.550781 144.828125 155.671875 145.640625 C 156.792969 146.445312 157.050781 148.007812 156.242188 149.128906 L 144.59375 165.332031 C 144.023438 166.125 143.070312 166.484375 142.164062 166.339844 " fill-opacity="1" fill-rule="nonzero"/></g></g></g></g><g clip-path="url(#15ff2e4e61)"><g clip-path="url(#9404a77531)"><g clip-path="url(#cd5d1650f3)"><g clip-path="url(#bd8ea75cf1)"><path fill="#59b8ba" d="M 148.410156 170.078125 C 148.019531 170.015625 147.636719 169.859375 147.296875 169.601562 C 146.199219 168.765625 145.984375 167.195312 146.820312 166.097656 L 158.175781 151.183594 C 159.011719 150.085938 160.578125 149.871094 161.683594 150.710938 C 162.78125 151.546875 162.996094 153.113281 162.15625 154.214844 L 150.800781 169.125 C 150.222656 169.886719 149.292969 170.222656 148.410156 170.078125 " fill-opacity="1" fill-rule="nonzero"/></g></g></g></g><g clip-path="url(#d50ad90155)"><g clip-path="url(#5ce6690e89)"><g clip-path="url(#f4b2afac2a)"><g clip-path="url(#02cff331fe)"><path fill="#fe7375" d="M 285.789062 157.089844 L 276.371094 194.03125 C 275.15625 198.804688 278.066406 203.707031 282.84375 204.925781 C 287.621094 206.144531 292.523438 203.234375 293.738281 198.457031 L 303.15625 161.511719 L 285.789062 157.089844 " fill-opacity="1" fill-rule="nonzero"/></g></g></g></g><g clip-path="url(#01b6683490)"><g clip-path="url(#48f15c0e7f)"><g clip-path="url(#f7fd3ce168)"><g clip-path="url(#fef1c50d16)"><path fill="#f8c935" d="M 279.972656 179.898438 C 279.972656 179.898438 282.84375 171.171875 289.917969 177.167969 C 294.679688 181.203125 297.34375 184.324219 297.34375 184.324219 C 297.34375 184.324219 294.964844 207.582031 282.84375 204.925781 C 270.726562 202.265625 279.972656 179.898438 279.972656 179.898438 " fill-opacity="1" fill-rule="nonzero"/></g></g></g></g><g clip-path="url(#14b002874c)"><g clip-path="url(#f47f9d460f)"><g clip-path="url(#f86ed01c88)"><g clip-path="url(#1dd9700524)"><path fill="#91406c" d="M 288.496094 161.648438 L 280.007812 194.957031 C 279.296875 197.742188 280.984375 200.582031 283.769531 201.289062 C 286.554688 202 289.394531 200.3125 290.105469 197.53125 L 298.59375 164.222656 Z M 281.917969 208.558594 C 275.125 206.828125 271.007812 199.894531 272.738281 193.105469 L 283.078125 152.527344 L 307.71875 158.804688 L 297.375 199.382812 C 295.644531 206.175781 288.710938 210.289062 281.917969 208.558594 " fill-opacity="1" fill-rule="nonzero"/></g></g></g></g><g clip-path="url(#4d1b6a5f72)"><g clip-path="url(#08c610167b)"><g clip-path="url(#24dfe61f9a)"><g clip-path="url(#ca461253bf)"><g clip-path="url(#0fa0d01e03)"><g clip-path="url(#575bb306e8)"><path fill="#91406c" d="M 310.460938 163.375 L 278.988281 155.355469 C 278.230469 155.164062 277.765625 154.382812 277.960938 153.625 L 279.699219 146.808594 C 279.890625 146.050781 280.667969 145.589844 281.425781 145.78125 L 312.902344 153.800781 C 313.660156 153.996094 314.121094 154.773438 313.929688 155.53125 L 312.191406 162.347656 C 312 163.105469 311.21875 163.566406 310.460938 163.375 " fill-opacity="1" fill-rule="nonzero"/></g></g></g></g></g></g><g clip-path="url(#abce04eaa1)"><g clip-path="url(#39b89195f3)"><g clip-path="url(#6fbaba9e6b)"><g clip-path="url(#85cc070b54)"><path fill="#f8c935" d="M 297.855469 140.128906 C 297.214844 142.636719 294.660156 144.152344 292.152344 143.511719 C 289.640625 142.875 288.125 140.324219 288.765625 137.8125 C 289.40625 135.304688 291.957031 133.789062 294.46875 134.429688 C 296.976562 135.066406 298.492188 137.621094 297.855469 140.128906 " fill-opacity="1" fill-rule="nonzero"/></g></g></g></g><g clip-path="url(#46c0db41a1)"><g clip-path="url(#b6e9207e4e)"><g clip-path="url(#e837dad8ee)"><g clip-path="url(#ae36e65ec9)"><path fill="#f8c935" d="M 315.25 134.523438 C 314.238281 138.496094 310.195312 140.894531 306.222656 139.882812 C 302.25 138.871094 299.847656 134.828125 300.859375 130.859375 C 301.875 126.886719 305.914062 124.484375 309.886719 125.5 C 313.863281 126.511719 316.261719 130.550781 315.25 134.523438 " fill-opacity="1" fill-rule="nonzero"/></g></g></g></g><g clip-path="url(#a28597996a)"><g clip-path="url(#00dfd7edef)"><g clip-path="url(#1caef279ff)"><g clip-path="url(#c125206b6d)"><path fill="#f8c935" d="M 97.699219 193.644531 L 103.683594 179.589844 L 103.460938 179.648438 C 101.457031 180.171875 99.410156 178.976562 98.882812 176.972656 C 98.355469 174.972656 99.554688 172.921875 101.558594 172.394531 L 116.582031 168.460938 L 110.578125 182.546875 L 113.84375 181.699219 C 115.847656 181.175781 117.898438 182.382812 118.417969 184.386719 C 118.941406 186.390625 117.738281 188.4375 115.730469 188.960938 L 97.699219 193.644531 " fill-opacity="1" fill-rule="nonzero"/></g></g></g></g><g fill="#90426c" fill-opacity="1"><g transform="translate(86.484775, 226.208413)"><g><path d="M 10.691406 2.480469 C 24.234375 0.566406 32.015625 -15.453125 31.148438 -21.609375 C 30.648438 -25.160156 26.558594 -30.046875 19.929688 -29.921875 C 15.136719 -29.835938 7.398438 -27.636719 7.0625 -30.027344 C 6.539062 -33.71875 18.621094 -39.710938 24.195312 -40.496094 C 25.210938 -40.640625 27.03125 -40.308594 26.84375 -41.609375 C 26.539062 -43.785156 21.308594 -47.328125 17.183594 -46.746094 C 10.085938 -45.742188 -0.199219 -38.011719 1.050781 -29.175781 C 1.753906 -24.179688 6.3125 -21.722656 11.601562 -22.46875 C 17.539062 -23.308594 23.425781 -25.023438 23.96875 -21.1875 C 24.53125 -17.203125 13.1875 -6 6.667969 -5.078125 C 5.367188 -4.894531 4.269531 -5.332031 4.117188 -6.417969 C 3.605469 -10.039062 9.933594 -15.953125 12.503906 -17.648438 C 15.070312 -19.339844 10.800781 -19.769531 5.25 -16.695312 C 2.164062 -15.003906 -1.6875 -11.949219 -0.695312 -4.925781 C -0.0195312 -0.144531 6.417969 3.082031 10.691406 2.480469 Z M 10.691406 2.480469 "/></g></g></g><g fill="#90426c" fill-opacity="1"><g transform="translate(121.969691, 221.196641)"><g><path d="M 11.140625 -0.0976562 C 13.820312 -0.472656 15.386719 -2.46875 14.984375 -5.292969 C 14.945312 -5.582031 14.675781 -6.429688 14.273438 -5.636719 C 14.097656 -5.316406 13.835938 -5.058594 13.546875 -5.015625 C 12.894531 -4.921875 12.496094 -6.195312 12.25 -7.933594 C 11.953125 -10.035156 11.914062 -12.910156 11.910156 -15.050781 C 23.988281 -7.96875 31.097656 -8.378906 34.449219 -10.773438 C 37.804688 -13.167969 36.726562 -16.636719 35.835938 -15.625 C 34.675781 -14.425781 26.976562 -14.003906 19.734375 -18.742188 C 29.910156 -23.578125 37.417969 -35.273438 36.496094 -41.792969 C 36.25 -43.53125 35.539062 -44.90625 34.195312 -45.011719 C 32.9375 -48.160156 28.523438 -48.570312 26.203125 -48.242188 C 22.078125 -47.660156 18.796875 -46.828125 12.988281 -43.496094 C 12.089844 -44.105469 10.601562 -44.707031 9.175781 -45.394531 C 8.222656 -45.851562 7.46875 -45.449219 7.320312 -44.394531 C 6.945312 -41.828125 6.839844 -40.484375 6.773438 -38.851562 C 6.121094 -38.242188 5.34375 -37.464844 2.984375 -35.359375 C 2.195312 -34.65625 2.113281 -33.6875 2.992188 -33.21875 L 4.914062 -32.160156 C 4.054688 -27.238281 2.28125 -17.3125 3.324219 -9.925781 C 3.671875 -7.460938 4.414062 -5.351562 5.746094 -3.765625 C 6.652344 -1.53125 8.75 0.242188 11.140625 -0.0976562 Z M 12.886719 -24.347656 C 13.59375 -28.214844 14.378906 -32.609375 15.148438 -36.042969 C 17.28125 -37.675781 21.535156 -39.457031 23.863281 -40.230469 C 25.625 -40.847656 29.792969 -41.65625 30.050781 -39.847656 C 30.867188 -34.054688 20.769531 -26.570312 12.886719 -24.347656 Z M 12.886719 -24.347656 "/></g></g></g><g fill="#90426c" fill-opacity="1"><g transform="translate(160.351323, 215.775745)"><g><path d="M 6.347656 3.09375 C 6.863281 3.09375 9.800781 2.972656 9.515625 1.464844 C 8.34375 -4.207031 9.546875 -13.980469 13.148438 -33.472656 C 14.847656 -23.519531 15.300781 -21.367188 16.296875 -16.410156 C 16.707031 -14.546875 19.238281 -13.355469 21.050781 -13.609375 C 21.773438 -13.710938 22.507812 -13.742188 23.378906 -13.863281 C 25.476562 -14.160156 25.902344 -15.328125 27.097656 -17.863281 C 28.269531 -20.023438 29.472656 -23 30.5625 -25.222656 C 32.191406 -28.332031 33.59375 -31.484375 36.351562 -36.011719 C 36.929688 -33.507812 33.367188 -20.003906 34.015625 -10.714844 C 34.085938 -9.171875 34.496094 -7.308594 36.058594 -7.234375 C 36.804688 -7.191406 37.878906 -7.417969 38.675781 -7.53125 C 41.066406 -7.867188 41.460938 -9.253906 41.421875 -10.578125 C 41.34375 -13.226562 41.566406 -15.84375 41.828125 -19.722656 C 42.410156 -27.632812 44.191406 -34.902344 44.03125 -38.128906 C 44.03125 -38.644531 43.878906 -40.25 43.816406 -40.683594 C 43.613281 -42.132812 41.484375 -43.605469 38.660156 -43.207031 C 37.761719 -43.300781 37.617188 -43.28125 36.675781 -43.148438 C 35.515625 -42.984375 34.417969 -42.386719 32.617188 -41.023438 C 27.386719 -36.738281 25.511719 -28.570312 21.976562 -23.269531 C 21.515625 -25.492188 21.300781 -27.53125 20.921875 -30.210938 C 20.675781 -31.949219 20.472656 -33.914062 19.605469 -36.378906 C 18.753906 -38.769531 18.175781 -39.722656 15.1875 -40.480469 C 15.074219 -41.796875 15.097656 -42.683594 15.003906 -43.335938 C 14.820312 -44.640625 13.976562 -45.925781 11.371094 -46.589844 C 8.609375 -47.308594 7.613281 -46.503906 7.207031 -45.191406 C 3.558594 -33.375 1.921875 -24.054688 0.175781 -12.359375 C -0.117188 -10.25 -0.910156 -5.410156 -0.328125 -1.28125 C -0.0546875 0.671875 0.617188 3.3125 6.347656 3.09375 Z M 6.347656 3.09375 "/></g></g></g><g fill="#90426c" fill-opacity="1"><g transform="translate(207.857613, 209.066114)"><g><path d="M 10.691406 2.480469 C 24.234375 0.566406 32.015625 -15.453125 31.148438 -21.609375 C 30.648438 -25.160156 26.558594 -30.046875 19.929688 -29.921875 C 15.136719 -29.835938 7.398438 -27.636719 7.0625 -30.027344 C 6.539062 -33.71875 18.621094 -39.710938 24.195312 -40.496094 C 25.210938 -40.640625 27.03125 -40.308594 26.84375 -41.609375 C 26.539062 -43.785156 21.308594 -47.328125 17.183594 -46.746094 C 10.085938 -45.742188 -0.199219 -38.011719 1.050781 -29.175781 C 1.753906 -24.179688 6.3125 -21.722656 11.601562 -22.46875 C 17.539062 -23.308594 23.425781 -25.023438 23.96875 -21.1875 C 24.53125 -17.203125 13.1875 -6 6.667969 -5.078125 C 5.367188 -4.894531 4.269531 -5.332031 4.117188 -6.417969 C 3.605469 -10.039062 9.933594 -15.953125 12.503906 -17.648438 C 15.070312 -19.339844 10.800781 -19.769531 5.25 -16.695312 C 2.164062 -15.003906 -1.6875 -11.949219 -0.695312 -4.925781 C -0.0195312 -0.144531 6.417969 3.082031 10.691406 2.480469 Z M 10.691406 2.480469 "/></g></g></g><g clip-path="url(#9c2bba0386)"><g clip-path="url(#1dbaf74148)"><g clip-path="url(#1bb4708f31)"><g clip-path="url(#ccded8b5c1)"><g clip-path="url(#5bbb4a9c23)"><path fill="#ffd41f" d="M 192.800781 153.46875 L 195.097656 141.796875 C 195.472656 139.882812 197.328125 138.636719 199.242188 139.011719 L 263.808594 151.707031 C 265.722656 152.082031 266.96875 153.9375 266.589844 155.851562 L 264.296875 167.527344 C 263.917969 169.441406 262.0625 170.6875 260.148438 170.3125 L 195.585938 157.617188 C 193.671875 157.242188 192.425781 155.382812 192.800781 153.46875 " fill-opacity="1" fill-rule="nonzero"/></g></g></g></g></g><g clip-path="url(#1ee704eb05)"><g clip-path="url(#ea169066ce)"><g clip-path="url(#3f6e78d4a6)"><path fill="#90426c" d="M 257.820312 162 C 257.6875 162.355469 257.316406 162.570312 256.933594 162.496094 C 256.511719 162.414062 256.234375 162 256.316406 161.578125 L 258.164062 152.175781 C 258.25 151.75 258.660156 151.472656 259.085938 151.558594 C 259.507812 151.640625 259.785156 152.050781 259.703125 152.476562 L 257.855469 161.878906 C 257.847656 161.921875 257.835938 161.960938 257.820312 162 " fill-opacity="1" fill-rule="nonzero"/></g></g></g><g clip-path="url(#9711ee7ac6)"><g clip-path="url(#da4326e558)"><g clip-path="url(#3639548cce)"><path fill="#90426c" d="M 239.347656 158.367188 C 239.21875 158.722656 238.84375 158.9375 238.464844 158.863281 C 238.039062 158.78125 237.761719 158.367188 237.84375 157.945312 L 239.695312 148.542969 C 239.777344 148.121094 240.1875 147.84375 240.613281 147.925781 C 241.039062 148.007812 241.3125 148.421875 241.230469 148.84375 L 239.382812 158.246094 C 239.375 158.289062 239.363281 158.328125 239.347656 158.367188 " fill-opacity="1" fill-rule="nonzero"/></g></g></g><g clip-path="url(#fa8c6c81d6)"><g clip-path="url(#c24332ff80)"><g clip-path="url(#5f27a2f281)"><path fill="#90426c" d="M 220.875 154.738281 C 220.746094 155.089844 220.375 155.308594 219.992188 155.234375 C 219.566406 155.148438 219.289062 154.738281 219.375 154.3125 L 221.222656 144.910156 C 221.304688 144.488281 221.71875 144.210938 222.140625 144.292969 C 222.566406 144.378906 222.84375 144.789062 222.757812 145.214844 L 220.910156 154.613281 C 220.902344 154.65625 220.890625 154.699219 220.875 154.738281 " fill-opacity="1" fill-rule="nonzero"/></g></g></g><g clip-path="url(#b574eb48a5)"><g clip-path="url(#ccec68bf7a)"><g clip-path="url(#b5bd29902f)"><path fill="#90426c" d="M 226.066406 151.738281 C 225.96875 152.003906 225.6875 152.164062 225.402344 152.109375 C 225.082031 152.046875 224.875 151.738281 224.9375 151.417969 L 226.03125 145.855469 C 226.09375 145.539062 226.402344 145.332031 226.722656 145.394531 C 227.039062 145.457031 227.246094 145.765625 227.183594 146.082031 L 226.089844 151.644531 C 226.085938 151.679688 226.078125 151.707031 226.066406 151.738281 " fill-opacity="1" fill-rule="nonzero"/></g></g></g><g clip-path="url(#a5a6246bfe)"><g clip-path="url(#d41ee894bb)"><g clip-path="url(#3a08b754b4)"><path fill="#90426c" d="M 235.300781 153.554688 C 235.203125 153.820312 234.925781 153.980469 234.636719 153.925781 C 234.320312 153.863281 234.113281 153.554688 234.175781 153.234375 L 235.269531 147.671875 C 235.328125 147.355469 235.640625 147.148438 235.957031 147.210938 C 236.277344 147.273438 236.484375 147.582031 236.421875 147.898438 L 235.328125 153.460938 C 235.320312 153.492188 235.3125 153.523438 235.300781 153.554688 " fill-opacity="1" fill-rule="nonzero"/></g></g></g><g clip-path="url(#c5c6120c66)"><g clip-path="url(#7167b81e96)"><g clip-path="url(#68821c9f7c)"><path fill="#90426c" d="M 230.683594 152.644531 C 230.585938 152.910156 230.304688 153.074219 230.019531 153.015625 C 229.703125 152.953125 229.492188 152.644531 229.558594 152.328125 L 230.652344 146.765625 C 230.710938 146.445312 231.023438 146.238281 231.339844 146.300781 C 231.660156 146.363281 231.867188 146.671875 231.804688 146.992188 L 230.710938 152.554688 C 230.703125 152.585938 230.695312 152.617188 230.683594 152.644531 " fill-opacity="1" fill-rule="nonzero"/></g></g></g><g clip-path="url(#ddadf9bfe0)"><g clip-path="url(#9e07b7c469)"><g clip-path="url(#f240d4154e)"><path fill="#90426c" d="M 244.539062 155.371094 C 244.4375 155.632812 244.160156 155.796875 243.875 155.742188 C 243.554688 155.679688 243.347656 155.371094 243.410156 155.050781 L 244.503906 149.488281 C 244.566406 149.167969 244.875 148.964844 245.195312 149.027344 C 245.511719 149.089844 245.71875 149.398438 245.65625 149.714844 L 244.5625 155.277344 C 244.558594 155.308594 244.546875 155.339844 244.539062 155.371094 " fill-opacity="1" fill-rule="nonzero"/></g></g></g><g clip-path="url(#b05c417555)"><g clip-path="url(#1a6cc1e44a)"><g clip-path="url(#7c5e158856)"><path fill="#90426c" d="M 253.773438 157.183594 C 253.675781 157.449219 253.394531 157.613281 253.109375 157.558594 C 252.789062 157.496094 252.582031 157.183594 252.644531 156.867188 L 253.738281 151.304688 C 253.800781 150.984375 254.109375 150.777344 254.429688 150.839844 C 254.746094 150.90625 254.957031 151.214844 254.890625 151.53125 L 253.796875 157.09375 C 253.792969 157.125 253.785156 157.15625 253.773438 157.183594 " fill-opacity="1" fill-rule="nonzero"/></g></g></g><g clip-path="url(#af355e4e1c)"><g clip-path="url(#ce5b013830)"><g clip-path="url(#38e6560436)"><path fill="#90426c" d="M 249.15625 156.277344 C 249.058594 156.542969 248.777344 156.707031 248.492188 156.648438 C 248.171875 156.585938 247.964844 156.277344 248.027344 155.960938 L 249.121094 150.398438 C 249.183594 150.078125 249.492188 149.871094 249.8125 149.933594 C 250.128906 149.996094 250.335938 150.304688 250.273438 150.625 L 249.179688 156.1875 C 249.175781 156.21875 249.167969 156.25 249.15625 156.277344 " fill-opacity="1" fill-rule="nonzero"/></g></g></g><g clip-path="url(#5d716920da)"><g clip-path="url(#f1c168b01c)"><g clip-path="url(#0a8a13a460)"><path fill="#90426c" d="M 207.59375 148.105469 C 207.496094 148.371094 207.21875 148.535156 206.929688 148.476562 C 206.613281 148.414062 206.40625 148.105469 206.46875 147.789062 L 207.5625 142.226562 C 207.621094 141.90625 207.933594 141.699219 208.25 141.761719 C 208.570312 141.824219 208.777344 142.132812 208.714844 142.453125 L 207.621094 148.015625 C 207.613281 148.046875 207.605469 148.078125 207.59375 148.105469 " fill-opacity="1" fill-rule="nonzero"/></g></g></g><g clip-path="url(#f5a6124b92)"><g clip-path="url(#8a5a0cea63)"><g clip-path="url(#7ffcef5b56)"><path fill="#90426c" d="M 216.832031 149.921875 C 216.730469 150.1875 216.453125 150.351562 216.167969 150.292969 C 215.847656 150.230469 215.640625 149.921875 215.703125 149.605469 L 216.796875 144.042969 C 216.859375 143.722656 217.167969 143.515625 217.484375 143.578125 C 217.804688 143.640625 218.011719 143.949219 217.949219 144.269531 L 216.855469 149.832031 C 216.851562 149.863281 216.839844 149.890625 216.832031 149.921875 " fill-opacity="1" fill-rule="nonzero"/></g></g></g><g clip-path="url(#4dbb992ab6)"><g clip-path="url(#77e4ed4e5e)"><g clip-path="url(#fcf42d03a7)"><path fill="#90426c" d="M 212.210938 149.015625 C 212.113281 149.277344 211.835938 149.441406 211.546875 149.386719 C 211.230469 149.324219 211.023438 149.015625 211.085938 148.695312 L 212.179688 143.132812 C 212.238281 142.816406 212.550781 142.609375 212.867188 142.671875 C 213.1875 142.734375 213.394531 143.042969 213.332031 143.359375 L 212.238281 148.921875 C 212.230469 148.953125 212.222656 148.984375 212.210938 149.015625 " fill-opacity="1" fill-rule="nonzero"/></g></g></g><g clip-path="url(#bc6dfe54b3)"><g clip-path="url(#64e04e6f51)"><g clip-path="url(#6309fdd782)"><path fill="#90426c" d="M 202.40625 151.105469 C 202.273438 151.460938 201.902344 151.675781 201.519531 151.601562 C 201.097656 151.515625 200.820312 151.105469 200.902344 150.679688 L 202.75 141.28125 C 202.832031 140.855469 203.246094 140.578125 203.671875 140.664062 C 204.09375 140.746094 204.371094 141.15625 204.289062 141.582031 L 202.441406 150.984375 C 202.433594 151.027344 202.417969 151.066406 202.40625 151.105469 " fill-opacity="1" fill-rule="nonzero"/></g></g></g><g fill="#90426c" fill-opacity="1"><g transform="translate(208.3944, 114.020279)"><g><path d="M 7.339844 0.175781 C 7.410156 0.382812 7.558594 0.53125 7.777344 0.585938 C 7.933594 0.613281 8.117188 0.605469 8.277344 0.59375 C 8.496094 0.609375 8.683594 0.5 8.796875 0.308594 C 8.886719 0.152344 11.703125 -6.503906 12.59375 -8.589844 C 12.644531 -8.730469 12.78125 -8.699219 12.773438 -8.558594 C 12.617188 -6.027344 12.429688 -3.351562 12.3125 -1.136719 C 12.296875 -0.898438 12.066406 -0.710938 11.828125 -0.746094 L 11.785156 -0.75 C 11.546875 -0.785156 11.335938 -0.597656 11.320312 -0.355469 C 11.316406 -0.296875 11.300781 -0.015625 11.304688 0.242188 C 11.308594 0.503906 11.492188 0.734375 11.773438 0.734375 L 14.609375 0.910156 C 14.90625 0.929688 15.160156 0.703125 15.199219 0.40625 L 15.234375 -0.132812 C 15.246094 -0.351562 15.097656 -0.542969 14.878906 -0.574219 C 14.800781 -0.582031 14.742188 -0.585938 14.664062 -0.609375 C 14.464844 -0.621094 14.292969 -0.8125 14.308594 -1.03125 C 14.3125 -1.394531 14.363281 -1.890625 14.371094 -2.011719 C 14.382812 -2.851562 14.449219 -3.609375 14.5 -4.445312 C 14.628906 -6.480469 14.746094 -8.699219 14.867188 -10.992188 C 14.863281 -11.214844 15.074219 -11.382812 15.292969 -11.347656 C 15.410156 -11.339844 15.550781 -11.351562 15.691406 -11.34375 C 15.953125 -11.347656 16.144531 -11.535156 16.160156 -11.773438 C 16.171875 -11.953125 16.179688 -12.453125 16.191406 -12.632812 C 16.210938 -12.933594 16.058594 -13.042969 15.757812 -13.0625 C 15.257812 -13.074219 13.265625 -13.21875 13.066406 -13.230469 C 12.90625 -13.238281 12.757812 -13.148438 12.6875 -12.992188 C 11.257812 -9.9375 9.941406 -6.492188 8.460938 -3.320312 C 8.390625 -3.164062 8.191406 -3.175781 8.121094 -3.339844 C 8.121094 -3.339844 8.121094 -3.359375 8.105469 -3.382812 C 7.125 -6.328125 6.121094 -10.457031 5.105469 -13.445312 C 5.054688 -13.589844 4.917969 -13.695312 4.78125 -13.707031 C 4.121094 -13.765625 2.90625 -13.882812 2.046875 -13.894531 C 1.828125 -13.890625 1.65625 -13.738281 1.644531 -13.519531 C 1.632812 -13.339844 1.605469 -12.941406 1.613281 -12.742188 C 1.597656 -12.460938 1.804688 -12.226562 2.082031 -12.210938 C 2.164062 -12.207031 2.222656 -12.183594 2.28125 -12.179688 C 2.5 -12.164062 2.667969 -11.972656 2.636719 -11.757812 C 2.507812 -10 2.230469 -4.628906 1.992188 -1.777344 C 1.980469 -1.558594 1.789062 -1.390625 1.570312 -1.40625 L 1.410156 -1.414062 C 1.128906 -1.414062 0.875 -1.207031 0.859375 -0.929688 C 0.847656 -0.730469 0.855469 -0.527344 0.863281 -0.328125 C 0.867188 -0.0859375 1.054688 0.105469 1.292969 0.121094 C 2.054688 0.148438 3.390625 0.25 4.269531 0.265625 C 4.570312 0.285156 4.804688 0.0585938 4.839844 -0.21875 C 4.886719 -0.597656 4.929688 -1.015625 4.757812 -1.125 C 4.660156 -1.191406 4.523438 -1.242188 4.34375 -1.25 C 4.125 -1.285156 3.9375 -1.476562 3.953125 -1.71875 C 4.148438 -3.886719 4.21875 -6.949219 4.414062 -9.121094 C 4.421875 -9.21875 4.542969 -9.234375 4.558594 -9.152344 Z M 7.339844 0.175781 "/></g></g></g><g fill="#90426c" fill-opacity="1"><g transform="translate(224.088334, 115.080781)"><g><path d="M 11.300781 0.234375 L 11.183594 0.214844 C 11.007812 0.167969 10.882812 0.046875 10.851562 -0.121094 C 10.539062 -1.730469 9.527344 -9.136719 9.101562 -12.324219 C 9.054688 -12.675781 8.777344 -12.960938 8.425781 -13.039062 L 8.148438 -13.082031 C 7.796875 -13.15625 7.441406 -12.972656 7.269531 -12.652344 C 5.328125 -8.832031 2.324219 -2.910156 1.550781 -1.617188 C 1.46875 -1.46875 1.3125 -1.371094 1.132812 -1.398438 L 0.996094 -1.421875 C 0.695312 -1.449219 0.441406 -1.246094 0.375 -0.972656 L 0.289062 -0.542969 C 0.238281 -0.226562 0.453125 0.0703125 0.769531 0.121094 L 4.007812 0.636719 C 4.265625 0.675781 4.515625 0.492188 4.558594 0.238281 L 4.664062 -0.3125 C 4.707031 -0.570312 4.542969 -0.816406 4.285156 -0.859375 L 3.953125 -0.933594 C 3.835938 -0.949219 3.679688 -1.117188 3.738281 -1.230469 C 3.855469 -1.453125 4.042969 -1.746094 4.136719 -1.957031 C 4.421875 -2.597656 4.636719 -3.070312 4.957031 -3.6875 C 5.023438 -3.839844 5.195312 -3.914062 5.355469 -3.886719 C 6.046875 -3.777344 7.085938 -3.574219 7.839844 -3.472656 C 8.078125 -3.457031 8.222656 -3.351562 8.238281 -3.1875 C 8.386719 -2.335938 8.441406 -1.011719 8.554688 -0.445312 C 8.574219 -0.320312 8.480469 -0.234375 8.359375 -0.234375 L 8.082031 -0.277344 C 7.863281 -0.3125 7.679688 -0.160156 7.644531 0.0390625 L 7.523438 0.808594 C 7.488281 1.027344 7.644531 1.210938 7.839844 1.242188 L 11.035156 1.769531 C 11.253906 1.804688 11.460938 1.65625 11.492188 1.457031 L 11.613281 0.6875 C 11.648438 0.46875 11.515625 0.265625 11.300781 0.234375 Z M 7.828125 -5.054688 C 7.351562 -5.128906 6.527344 -5.28125 6.050781 -5.355469 C 5.894531 -5.382812 5.800781 -5.558594 5.867188 -5.710938 C 6.292969 -6.734375 7.296875 -8.863281 7.476562 -9.242188 C 7.484375 -9.28125 7.53125 -9.3125 7.570312 -9.308594 L 7.707031 -9.285156 C 7.746094 -9.277344 7.78125 -9.234375 7.777344 -9.214844 C 7.800781 -8.84375 8.070312 -6.472656 8.132812 -5.332031 C 8.148438 -5.167969 8.003906 -5.027344 7.828125 -5.054688 Z M 7.828125 -5.054688 "/></g></g></g><g fill="#90426c" fill-opacity="1"><g transform="translate(235.352667, 116.853851)"><g><path d="M 8.992188 -2.742188 C 8.96875 -2.644531 8.847656 -2.65625 8.828125 -2.742188 L 6.632812 -12.46875 C 6.5625 -12.691406 6.402344 -12.875 6.183594 -12.90625 L 4.355469 -13.347656 C 4.199219 -13.382812 4.035156 -13.300781 4 -13.144531 L 3.742188 -12.074219 C 3.703125 -11.921875 3.8125 -11.769531 3.964844 -11.734375 L 4.316406 -11.648438 C 4.472656 -11.613281 4.578125 -11.460938 4.542969 -11.304688 L 2.160156 -1.371094 C 2.113281 -1.175781 1.898438 -1.042969 1.703125 -1.089844 C 1.488281 -1.140625 1.292969 -1.003906 1.246094 -0.808594 L 1.101562 -0.125 C 1.046875 0.0898438 1.167969 0.28125 1.378906 0.332031 L 3.882812 0.957031 C 4.097656 1.011719 4.289062 0.890625 4.339844 0.679688 L 4.53125 -0.015625 C 4.582031 -0.230469 4.46875 -0.441406 4.253906 -0.496094 L 4.175781 -0.511719 C 3.980469 -0.558594 3.847656 -0.777344 3.894531 -0.972656 L 5.679688 -8.441406 C 5.695312 -8.496094 5.777344 -8.5 5.800781 -8.429688 L 8.175781 1.667969 C 8.226562 1.882812 8.394531 2.027344 8.609375 2.082031 L 9.425781 2.277344 C 9.621094 2.324219 9.832031 2.210938 9.859375 2.011719 L 10.957031 -2.78125 L 12.535156 -9.3125 C 12.582031 -9.507812 12.75 -9.609375 12.949219 -9.582031 L 13.144531 -9.535156 C 13.320312 -9.496094 13.511719 -9.613281 13.558594 -9.804688 L 13.777344 -10.699219 C 13.816406 -10.875 13.699219 -11.070312 13.523438 -11.109375 L 10.769531 -11.796875 C 10.574219 -11.84375 10.382812 -11.726562 10.335938 -11.53125 L 10.113281 -10.617188 C 10.066406 -10.425781 10.1875 -10.230469 10.378906 -10.183594 L 10.476562 -10.160156 C 10.671875 -10.113281 10.789062 -9.921875 10.742188 -9.726562 Z M 8.992188 -2.742188 "/></g></g></g><g fill="#90426c" fill-opacity="1"><g transform="translate(246.343766, 119.491957)"><g><path d="M 11.121094 2.027344 L 11.003906 1.988281 C 10.839844 1.914062 10.738281 1.773438 10.730469 1.605469 C 10.679688 -0.03125 10.859375 -7.507812 10.945312 -10.71875 C 10.953125 -11.074219 10.726562 -11.402344 10.390625 -11.535156 L 10.125 -11.621094 C 9.789062 -11.75 9.410156 -11.625 9.1875 -11.335938 C 6.664062 -7.871094 2.757812 -2.503906 1.789062 -1.347656 C 1.683594 -1.214844 1.511719 -1.144531 1.339844 -1.203125 L 1.207031 -1.246094 C 0.917969 -1.320312 0.632812 -1.160156 0.527344 -0.902344 L 0.371094 -0.488281 C 0.269531 -0.183594 0.4375 0.144531 0.742188 0.242188 L 3.855469 1.265625 C 4.105469 1.347656 4.382812 1.207031 4.460938 0.957031 L 4.65625 0.433594 C 4.738281 0.1875 4.617188 -0.0859375 4.367188 -0.167969 L 4.050781 -0.292969 C 3.9375 -0.328125 3.808594 -0.519531 3.886719 -0.621094 C 4.035156 -0.824219 4.269531 -1.082031 4.394531 -1.273438 C 4.777344 -1.863281 5.066406 -2.292969 5.480469 -2.851562 C 5.570312 -2.992188 5.75 -3.039062 5.902344 -2.988281 C 6.570312 -2.769531 7.5625 -2.402344 8.292969 -2.183594 C 8.527344 -2.128906 8.652344 -2.003906 8.640625 -1.835938 C 8.652344 -0.972656 8.492188 0.34375 8.515625 0.917969 C 8.515625 1.046875 8.410156 1.117188 8.289062 1.097656 L 8.023438 1.011719 C 7.8125 0.941406 7.605469 1.0625 7.542969 1.253906 L 7.300781 1.992188 C 7.230469 2.203125 7.351562 2.410156 7.542969 2.472656 L 10.613281 3.5 C 10.824219 3.570312 11.050781 3.457031 11.113281 3.265625 L 11.355469 2.523438 C 11.425781 2.316406 11.328125 2.09375 11.121094 2.027344 Z M 8.53125 -3.746094 C 8.074219 -3.894531 7.28125 -4.175781 6.828125 -4.328125 C 6.675781 -4.375 6.609375 -4.566406 6.699219 -4.707031 C 7.28125 -5.648438 8.613281 -7.589844 8.851562 -7.933594 C 8.863281 -7.972656 8.914062 -7.996094 8.953125 -7.984375 L 9.085938 -7.941406 C 9.125 -7.929688 9.148438 -7.878906 9.144531 -7.859375 C 9.105469 -7.492188 9 -5.109375 8.878906 -3.96875 C 8.867188 -3.804688 8.703125 -3.691406 8.53125 -3.746094 Z M 8.53125 -3.746094 "/></g></g></g><g fill="#90426c" fill-opacity="1"><g transform="translate(257.192689, 123.053988)"><g><path d="M 11.140625 -2.582031 L 8.925781 -3.5 C 8.574219 -3.648438 8.183594 -3.484375 8.035156 -3.132812 L 7.851562 -2.691406 C 7.742188 -2.371094 7.875 -2.011719 8.1875 -1.882812 L 8.9375 -1.546875 C 9.085938 -1.488281 9.167969 -1.320312 9.097656 -1.15625 C 8.941406 -0.722656 8.621094 0.0976562 8.539062 0.191406 C 7.921875 0.890625 6.851562 0.8125 6.058594 0.527344 C 3.425781 -0.632812 4.632812 -3.121094 5.65625 -5.640625 C 6.660156 -8.058594 9.425781 -11.585938 11.667969 -7.859375 C 11.75 -7.695312 11.78125 -7.511719 11.722656 -7.320312 C 11.6875 -7.226562 11.65625 -7.109375 11.613281 -6.996094 C 11.480469 -6.683594 11.644531 -6.289062 11.957031 -6.160156 C 12.125 -6.089844 12.300781 -5.996094 12.464844 -5.925781 C 12.816406 -5.78125 13.210938 -5.941406 13.355469 -6.292969 L 13.839844 -7.457031 C 13.867188 -7.574219 13.882812 -7.71875 13.855469 -7.863281 C 13.421875 -9.578125 11.3125 -10.757812 9.511719 -11.269531 C 6.570312 -12.058594 4.785156 -9.117188 3.679688 -6.71875 C 2.445312 -4.007812 1.078125 0.6875 4.910156 2.257812 C 7.070312 3.152344 8.453125 3.101562 10 1.621094 C 10.136719 1.503906 10.234375 1.375 10.3125 1.234375 C 10.589844 0.675781 11.152344 -0.734375 11.515625 -1.710938 C 11.660156 -2.0625 11.492188 -2.433594 11.140625 -2.582031 Z M 11.140625 -2.582031 "/></g></g></g><g fill="#90426c" fill-opacity="1"><g transform="translate(266.905113, 127.101303)"><g><path d="M 12.417969 -6.421875 C 12.617188 -6.324219 12.847656 -6.386719 12.980469 -6.566406 C 13.257812 -6.988281 13.582031 -7.585938 13.894531 -8.167969 C 14.011719 -8.398438 13.949219 -8.675781 13.714844 -8.792969 C 11.792969 -9.730469 9.324219 -11.011719 7.617188 -11.839844 C 7.417969 -11.9375 7.160156 -11.867188 7.0625 -11.671875 C 6.9375 -11.464844 6.820312 -11.1875 6.714844 -10.972656 C 6.625 -10.75 6.722656 -10.5 6.925781 -10.417969 C 7.179688 -10.339844 7.292969 -10.035156 7.179688 -9.800781 C 5.722656 -6.886719 4.15625 -3.800781 2.71875 -0.964844 C 2.601562 -0.734375 2.371094 -0.582031 2.144531 -0.714844 C 2.128906 -0.726562 1.941406 -0.796875 1.921875 -0.804688 C 1.671875 -0.929688 1.546875 -0.859375 1.421875 -0.609375 C 1.324219 -0.410156 1.179688 -0.125 1.101562 0.0820312 C 0.984375 0.3125 1.019531 0.507812 1.234375 0.617188 C 1.378906 0.6875 1.617188 0.785156 1.71875 0.859375 C 3.265625 1.652344 5.757812 2.878906 7.324219 3.683594 C 7.519531 3.78125 7.761719 3.699219 7.878906 3.511719 C 8.234375 2.886719 8.488281 2.429688 8.691406 2.019531 C 8.800781 1.804688 8.710938 1.535156 8.496094 1.429688 C 8.289062 1.304688 8.09375 1.207031 7.859375 1.089844 C 7.644531 0.980469 7.429688 1.144531 7.351562 1.304688 C 7.234375 1.535156 7.152344 1.785156 7.046875 1.734375 C 6.609375 1.535156 5.429688 0.945312 4.738281 0.582031 C 4.535156 0.453125 4.460938 0.195312 4.570312 -0.0195312 C 5.265625 -1.414062 5.765625 -2.460938 6.457031 -3.835938 C 6.5625 -4.050781 6.832031 -4.140625 7.046875 -4.035156 C 7.652344 -3.730469 8.851562 -3.085938 9.523438 -2.730469 C 9.78125 -2.578125 10.121094 -2.675781 10.300781 -2.945312 C 10.417969 -3.132812 10.53125 -3.363281 10.632812 -3.5625 C 10.71875 -3.785156 10.640625 -4.027344 10.453125 -4.144531 C 9.613281 -4.605469 8.503906 -5.117188 7.75 -5.492188 C 7.519531 -5.609375 7.429688 -5.875 7.535156 -6.089844 C 7.957031 -6.886719 8.609375 -8.101562 8.992188 -8.871094 C 9.101562 -9.085938 9.367188 -9.175781 9.582031 -9.070312 C 10.175781 -8.773438 10.988281 -8.390625 11.523438 -8.121094 C 11.722656 -8.023438 11.8125 -7.800781 11.757812 -7.601562 L 11.632812 -7.261719 C 11.523438 -7.050781 11.625 -6.796875 11.835938 -6.691406 C 12.035156 -6.59375 12.238281 -6.511719 12.417969 -6.421875 Z M 12.417969 -6.421875 "/></g></g></g><g fill="#90426c" fill-opacity="1"><g transform="translate(189.59894, 255.200081)"><g><path d="M 1.304688 -1.726562 C 1.042969 -1.703125 0.882812 -1.511719 0.898438 -1.316406 L 0.929688 -0.457031 C 0.949219 -0.238281 1.144531 -0.0546875 1.363281 -0.0742188 C 2.023438 -0.109375 2.023438 -0.109375 4.625 -0.382812 C 4.867188 -0.40625 5.023438 -0.617188 4.984375 -0.835938 L 4.867188 -1.664062 C 4.847656 -1.859375 4.660156 -2.019531 4.460938 -2.003906 C 4.109375 -1.996094 3.917969 -2.15625 3.898438 -2.375 L 3.558594 -6.253906 C 3.542969 -6.425781 3.683594 -6.59375 3.859375 -6.609375 C 4.273438 -6.644531 5.019531 -6.734375 5.4375 -6.726562 C 6.425781 -6.8125 7.574219 -5.765625 7.746094 -4.34375 C 7.882812 -2.789062 8.066406 -1.414062 8.570312 -0.972656 C 9.140625 -0.535156 10.34375 -0.644531 11.515625 -0.878906 C 11.753906 -0.941406 11.914062 -1.132812 11.914062 -1.355469 C 11.9375 -1.621094 11.988281 -1.800781 11.976562 -2.175781 C 11.976562 -2.441406 11.800781 -2.667969 11.554688 -2.714844 C 11.304688 -2.78125 11.054688 -2.847656 10.59375 -3.09375 C 9.875 -3.472656 10.351562 -7.089844 8.230469 -7.613281 C 8.164062 -7.628906 8.152344 -7.738281 8.21875 -7.765625 C 10.15625 -8.554688 10.597656 -9.828125 10.304688 -12.167969 C 10.054688 -14.527344 8.210938 -16.15625 6.429688 -16.066406 C 5.214844 -16.046875 1.300781 -15.617188 -0.0117188 -15.476562 C -0.253906 -15.457031 -0.433594 -15.242188 -0.410156 -15 L -0.351562 -14.058594 C -0.328125 -13.816406 -0.113281 -13.613281 0.148438 -13.636719 L 0.261719 -13.648438 C 0.5 -13.667969 0.738281 -13.492188 0.761719 -13.226562 C 0.875 -11.648438 1.339844 -6.390625 1.554688 -3.667969 C 1.578125 -3.382812 1.625 -2.617188 1.644531 -2.152344 C 1.664062 -1.933594 1.5 -1.765625 1.304688 -1.726562 Z M 5.679688 -8.757812 C 5.175781 -8.710938 4.300781 -8.613281 3.753906 -8.542969 C 3.492188 -8.519531 3.253906 -8.699219 3.234375 -8.960938 L 2.867188 -13.390625 C 2.84375 -13.632812 3.046875 -13.847656 3.289062 -13.867188 C 4.007812 -13.953125 5.324219 -14.046875 5.613281 -14.027344 C 7.285156 -13.84375 7.761719 -13.445312 7.976562 -11.761719 C 8.246094 -9.6875 6.773438 -8.851562 5.679688 -8.757812 Z M 5.679688 -8.757812 "/></g></g></g><g fill="#90426c" fill-opacity="1"><g transform="translate(204.300896, 253.755132)"><g><path d="M 6.648438 -13.871094 C 6.886719 -13.914062 7.046875 -14.125 7.046875 -14.371094 C 7.011719 -14.921875 6.898438 -15.664062 6.785156 -16.378906 C 6.734375 -16.660156 6.496094 -16.863281 6.214844 -16.8125 C 3.902344 -16.359375 0.890625 -15.847656 -1.160156 -15.445312 C -1.398438 -15.402344 -1.578125 -15.167969 -1.535156 -14.929688 C -1.507812 -14.664062 -1.425781 -14.34375 -1.378906 -14.085938 C -1.308594 -13.828125 -1.058594 -13.675781 -0.824219 -13.742188 C -0.550781 -13.835938 -0.246094 -13.644531 -0.195312 -13.363281 C 0.457031 -9.839844 1.128906 -6.09375 1.746094 -2.648438 C 1.796875 -2.367188 1.695312 -2.082031 1.410156 -2.050781 C 1.386719 -2.046875 1.175781 -1.984375 1.152344 -1.980469 C 0.851562 -1.925781 0.789062 -1.78125 0.84375 -1.476562 C 0.890625 -1.238281 0.953125 -0.890625 1.019531 -0.660156 C 1.070312 -0.378906 1.234375 -0.226562 1.492188 -0.277344 C 1.664062 -0.308594 1.941406 -0.382812 2.078125 -0.382812 C 3.960938 -0.710938 6.964844 -1.289062 8.871094 -1.621094 C 9.109375 -1.664062 9.269531 -1.894531 9.246094 -2.136719 C 9.144531 -2.925781 9.0625 -3.492188 8.96875 -3.988281 C 8.921875 -4.25 8.664062 -4.425781 8.40625 -4.375 C 8.144531 -4.351562 7.90625 -4.304688 7.625 -4.253906 C 7.363281 -4.207031 7.28125 -3.921875 7.320312 -3.726562 C 7.371094 -3.445312 7.464844 -3.171875 7.335938 -3.148438 C 6.820312 -3.03125 5.394531 -2.765625 4.546875 -2.632812 C 4.28125 -2.605469 4.046875 -2.785156 4 -3.046875 C 3.6875 -4.734375 3.433594 -5.984375 3.125 -7.648438 C 3.078125 -7.90625 3.253906 -8.164062 3.511719 -8.210938 C 4.246094 -8.347656 5.726562 -8.578125 6.550781 -8.707031 C 6.878906 -8.746094 7.113281 -9.058594 7.09375 -9.414062 C 7.070312 -9.65625 7.019531 -9.9375 6.972656 -10.171875 C 6.90625 -10.429688 6.671875 -10.589844 6.433594 -10.566406 C 5.386719 -10.417969 4.074219 -10.128906 3.164062 -9.960938 C 2.882812 -9.910156 2.628906 -10.085938 2.582031 -10.34375 C 2.421875 -11.320312 2.1875 -12.820312 2.015625 -13.75 C 1.96875 -14.011719 2.144531 -14.269531 2.402344 -14.316406 C 3.117188 -14.449219 4.085938 -14.648438 4.734375 -14.769531 C 4.972656 -14.8125 5.199219 -14.675781 5.285156 -14.46875 L 5.398438 -14.085938 C 5.445312 -13.828125 5.699219 -13.671875 5.957031 -13.722656 C 6.195312 -13.765625 6.429688 -13.832031 6.648438 -13.871094 Z M 6.648438 -13.871094 "/></g></g></g><g fill="#90426c" fill-opacity="1"><g transform="translate(216.755614, 251.354207)"><g><path d="M 8.386719 -7.019531 C 7.488281 -9.507812 5.378906 -9.699219 3.621094 -9.871094 C 3.234375 -9.855469 1.132812 -10.113281 0.101562 -11.265625 C -1.203125 -12.75 -0.101562 -14.039062 0.980469 -14.339844 C 1.636719 -14.523438 2.394531 -14.597656 3.207031 -14.300781 C 3.359375 -14.25 3.484375 -14.125 3.53125 -13.957031 L 3.703125 -13.5 C 3.804688 -13.140625 4.175781 -12.949219 4.515625 -13.042969 L 5.363281 -13.277344 C 5.75 -13.363281 5.960938 -13.765625 5.859375 -14.125 L 5.449219 -15.425781 C 5.375 -15.613281 5.242188 -15.757812 5.082031 -15.847656 C 1.617188 -17.625 -1.242188 -15.59375 -1.242188 -15.59375 C -2.738281 -14.492188 -3.042969 -13.035156 -2.089844 -10.445312 C -1.371094 -8.523438 1.175781 -7.660156 3.113281 -7.421875 C 4.628906 -7.226562 5.902344 -7.082031 6.273438 -5.925781 C 6.855469 -4.082031 5.800781 -3.191406 4.71875 -2.890625 C 4.105469 -2.71875 3.308594 -2.636719 2.570312 -2.910156 C 2.335938 -3.003906 2.171875 -3.1875 2.089844 -3.390625 L 1.992188 -3.753906 C 1.871094 -4.105469 1.46875 -4.316406 1.113281 -4.191406 L 0.308594 -3.96875 C -0.0664062 -3.839844 -0.28125 -3.460938 -0.171875 -3.082031 L 0.21875 -1.84375 C 0.285156 -1.679688 0.417969 -1.53125 0.582031 -1.441406 C 2.558594 -0.324219 5.003906 -1.054688 6.269531 -1.589844 C 6.824219 -1.8125 7.324219 -2.15625 7.75 -2.59375 C 8.910156 -3.832031 9.222656 -4.761719 8.386719 -7.019531 Z M 8.386719 -7.019531 "/></g></g></g><g fill="#90426c" fill-opacity="1"><g transform="translate(229.155463, 247.851856)"><g><path d="M 5.738281 -18.75 L 2.507812 -17.472656 L 2.445312 -17.449219 C 2.195312 -17.304688 2.097656 -17.007812 2.222656 -16.746094 L 2.480469 -16.140625 C 2.597656 -15.902344 2.882812 -15.777344 3.136719 -15.851562 C 3.445312 -15.972656 3.738281 -15.824219 3.839844 -15.558594 C 4.347656 -14.316406 5.414062 -11.570312 6.210938 -9.519531 C 7.335938 -6.628906 7.882812 -4.738281 5.5625 -3.839844 C 3.246094 -2.9375 2.550781 -4.484375 1.355469 -7.558594 C 0.796875 -8.996094 -0.492188 -12.433594 -0.929688 -13.679688 C -1.03125 -13.949219 -0.90625 -14.234375 -0.554688 -14.417969 C -0.316406 -14.535156 -0.191406 -14.816406 -0.292969 -15.085938 L -0.550781 -15.742188 C -0.652344 -16.007812 -0.964844 -16.144531 -1.253906 -16.035156 L -4.511719 -14.765625 C -4.765625 -14.621094 -4.859375 -14.324219 -4.757812 -14.058594 L -4.488281 -13.429688 C -4.394531 -13.183594 -4.109375 -13.058594 -3.835938 -13.140625 C -3.527344 -13.261719 -3.234375 -13.117188 -3.128906 -12.847656 C -3.058594 -12.546875 -1.359375 -8.296875 -0.789062 -6.820312 C 1.332031 -1.367188 2.960938 -0.9375 6.242188 -2.214844 C 9.871094 -3.625 10.328125 -5.429688 8.40625 -10.371094 L 6.0625 -16.398438 C 5.957031 -16.667969 6.0625 -16.941406 6.320312 -17.066406 C 6.675781 -17.25 6.78125 -17.527344 6.675781 -17.792969 L 6.421875 -18.449219 C 6.316406 -18.71875 6.003906 -18.855469 5.738281 -18.75 Z M 5.738281 -18.75 "/></g></g></g><g fill="#90426c" fill-opacity="1"><g transform="translate(243.56577, 242.055777)"><g><path d="M -1.859375 -14.246094 C -1.640625 -14.355469 -1.535156 -14.632812 -1.625 -14.855469 L -2.03125 -15.613281 C -2.121094 -15.886719 -2.457031 -16.015625 -2.730469 -15.875 L -5.539062 -14.40625 C -5.804688 -14.296875 -5.890625 -13.980469 -5.769531 -13.746094 L -5.414062 -13.039062 C -5.292969 -12.804688 -5.019531 -12.695312 -4.761719 -12.777344 L -4.703125 -12.804688 C -4.457031 -12.90625 -4.203125 -12.789062 -4.082031 -12.554688 L 0.585938 -3.230469 C 0.714844 -2.972656 0.617188 -2.679688 0.363281 -2.550781 L 0.285156 -2.511719 C 0.0273438 -2.378906 -0.0585938 -2.066406 0.0585938 -1.832031 L 0.535156 -0.886719 C 0.664062 -0.632812 0.960938 -0.535156 1.214844 -0.664062 L 1.679688 -0.875 L 8.507812 -4.328125 C 8.765625 -4.457031 8.859375 -4.753906 8.730469 -5.007812 L 7.828125 -6.894531 C 7.699219 -7.148438 7.394531 -7.265625 7.136719 -7.136719 L 6.570312 -6.847656 C 6.351562 -6.738281 6.234375 -6.484375 6.316406 -6.226562 L 6.367188 -6.082031 C 6.4375 -5.84375 6.320312 -5.589844 6.101562 -5.480469 L 3.265625 -4.070312 C 3.011719 -3.941406 2.707031 -4.054688 2.585938 -4.292969 L -2.0625 -13.574219 C -2.179688 -13.8125 -2.101562 -14.097656 -1.859375 -14.246094 Z M -1.859375 -14.246094 "/></g></g></g><g fill="#90426c" fill-opacity="1"><g transform="translate(254.640977, 236.353662)"><g><path d="M -1.632812 -14.628906 C -1.757812 -14.835938 -1.683594 -15.089844 -1.496094 -15.203125 L -0.375 -15.902344 C -0.207031 -16.003906 0.0234375 -15.96875 0.136719 -15.828125 L 0.304688 -15.597656 C 0.492188 -15.378906 0.816406 -15.320312 1.070312 -15.453125 L 1.59375 -15.777344 C 1.882812 -15.933594 1.96875 -16.296875 1.8125 -16.585938 L 0.933594 -18.085938 C 0.777344 -18.378906 0.429688 -18.394531 0.152344 -18.222656 L -7.574219 -13.398438 C -7.761719 -13.28125 -7.835938 -13.027344 -7.707031 -12.820312 L -6.738281 -11.300781 C -6.609375 -11.09375 -6.367188 -11.039062 -6.179688 -11.15625 L -5.363281 -11.636719 C -5.179688 -11.75 -5.089844 -11.988281 -5.207031 -12.171875 L -5.292969 -12.355469 C -5.378906 -12.535156 -5.324219 -12.777344 -5.136719 -12.890625 L -4.03125 -13.578125 C -3.847656 -13.691406 -3.605469 -13.636719 -3.476562 -13.429688 L 2.425781 -4.019531 C 2.550781 -3.8125 2.5 -3.519531 2.292969 -3.394531 L 2.082031 -3.234375 C 1.867188 -3.078125 1.804688 -2.804688 1.964844 -2.59375 L 2.363281 -1.988281 C 2.511719 -1.792969 2.785156 -1.730469 2.988281 -1.859375 L 6.171875 -3.863281 C 6.378906 -3.988281 6.460938 -4.273438 6.320312 -4.496094 L 5.917969 -5.101562 C 5.792969 -5.308594 5.519531 -5.371094 5.300781 -5.261719 L 4.953125 -5.074219 C 4.75 -4.945312 4.476562 -5.007812 4.347656 -5.214844 Z M -1.632812 -14.628906 "/></g></g></g><g fill="#90426c" fill-opacity="1"><g transform="translate(265.403662, 229.557259)"><g><path d="M 5.253906 -9.59375 C 3.507812 -11.585938 1.476562 -10.992188 -0.226562 -10.511719 C -0.578125 -10.355469 -2.628906 -9.828125 -4.007812 -10.527344 C -5.765625 -11.433594 -5.207031 -13.039062 -4.3125 -13.710938 C -3.765625 -14.121094 -3.089844 -14.464844 -2.222656 -14.484375 C -2.066406 -14.492188 -1.902344 -14.421875 -1.796875 -14.28125 L -1.46875 -13.921875 C -1.246094 -13.625 -0.828125 -13.582031 -0.546875 -13.792969 L 0.15625 -14.320312 C 0.488281 -14.539062 0.535156 -14.988281 0.308594 -15.289062 L -0.546875 -16.351562 C -0.683594 -16.496094 -0.859375 -16.585938 -1.042969 -16.609375 C -4.914062 -17 -6.839844 -14.070312 -6.839844 -14.070312 C -7.832031 -12.496094 -7.582031 -11.03125 -5.753906 -8.96875 C -4.382812 -7.4375 -1.695312 -7.558594 0.195312 -8.046875 C 1.679688 -8.417969 2.917969 -8.746094 3.679688 -7.804688 C 4.898438 -6.296875 4.238281 -5.085938 3.34375 -4.414062 C 2.832031 -4.03125 2.121094 -3.660156 1.332031 -3.644531 C 1.082031 -3.648438 0.863281 -3.757812 0.710938 -3.921875 L 0.488281 -4.21875 C 0.246094 -4.503906 -0.203125 -4.554688 -0.488281 -4.3125 L -1.15625 -3.808594 C -1.460938 -3.554688 -1.523438 -3.121094 -1.285156 -2.804688 L -0.46875 -1.792969 C -0.34375 -1.667969 -0.167969 -1.578125 0.015625 -1.554688 C 2.265625 -1.234375 4.277344 -2.804688 5.261719 -3.765625 C 5.695312 -4.175781 6.035156 -4.675781 6.269531 -5.238281 C 6.902344 -6.816406 6.851562 -7.796875 5.253906 -9.59375 Z M 5.253906 -9.59375 "/></g></g></g></svg>